<?xml version="1.0" encoding="UTF-8" standalone="no"?><!DOCTYPE svg PUBLIC "-//W3C//DTD SVG 1.1//EN" "http://www.w3.org/Graphics/SVG/1.1/DTD/svg11.dtd"><svg width="100%" height="100%" viewBox="0 0 924 924" version="1.1" xmlns="http://www.w3.org/2000/svg" xmlns:xlink="http://www.w3.org/1999/xlink" xml:space="preserve" xmlns:serif="http://www.serif.com/" style="fill-rule:evenodd;clip-rule:evenodd;stroke-linejoin:round;stroke-miterlimit:2;"><rect id="_404" serif:id="404" x="0.25" y="0.683" width="923.077" height="923.077" style="fill:none;"/><g><path d="M322.379,468.079l-0,94.892l-8.591,0c-2.604,-9.372 -5.142,-16.466 -7.615,-21.282c-2.473,-4.816 -5.858,-8.526 -10.153,-11.13c-4.296,-2.603 -10.479,-4.425 -18.549,-5.467l-0,8.591c-0,13.798 1.432,25.513 4.295,35.146c2.864,9.632 6.248,16.922 10.153,21.868c3.906,4.946 7.55,7.94 10.935,8.982l-0,4.295l-122.228,0l-0,-4.295c3.384,-1.042 7.029,-4.036 10.934,-8.982c3.905,-4.946 7.289,-12.236 10.153,-21.868c2.864,-9.633 4.296,-21.348 4.296,-35.146l-0,-9.762l-95.674,-0.781c-5.467,-0 -9.632,-1.172 -12.496,-3.515c-2.864,-2.343 -4.296,-5.337 -4.296,-8.981c0,-3.905 1.562,-8.722 4.686,-14.449l96.845,-165.574c3.385,-5.727 8.136,-10.348 14.254,-13.863c6.118,-3.514 12.04,-5.272 17.768,-5.272l50.375,0l-0,193.691c8.07,-1.042 14.318,-2.929 18.744,-5.663c4.426,-2.733 7.875,-6.443 10.348,-11.129c2.474,-4.686 4.882,-11.455 7.225,-20.306l8.591,-0Zm-116.37,38.66l0.39,-138.629c0,-4.686 -1.432,-7.029 -4.296,-7.029c-2.343,-0 -5.076,2.473 -8.2,7.419l-71.462,121.447c-2.343,4.165 -3.515,7.42 -3.515,9.763c0,5.206 5.727,7.81 17.182,7.81l69.901,-0.781Z" style="fill:#e7e3df;fill-rule:nonzero;"/><path d="M583.626,410.284c6.509,17.963 9.763,37.358 9.763,58.185c-0,26.034 -6.378,50.115 -19.135,72.244c-12.756,22.128 -29.548,39.701 -50.375,52.718c-20.827,13.016 -42.695,19.525 -65.605,19.525c-23.17,-0 -44.843,-6.248 -65.019,-18.744c-20.176,-12.497 -36.382,-29.744 -48.617,-51.742c-12.236,-21.999 -18.354,-46.665 -18.354,-74.001c-0,-26.294 6.118,-50.7 18.354,-73.219c12.235,-22.519 28.571,-40.418 49.008,-53.695c20.436,-13.277 42.5,-19.915 66.19,-19.915c17.964,-0 35.732,3.709 53.304,11.129c17.573,7.42 31.957,17.898 43.151,31.436c11.194,13.537 16.792,29.027 16.792,46.47c-0,12.756 -3.189,24.601 -9.568,35.535c-6.378,10.935 -15.75,19.656 -28.116,26.164c-12.366,6.509 -27.01,9.763 -43.932,9.763c-15.62,-0 -29.288,-2.538 -41.003,-7.615c-11.715,-5.077 -20.696,-12.041 -26.945,-20.892c-6.248,-8.851 -9.372,-18.874 -9.372,-30.069c0,-11.975 3.45,-22.649 10.349,-32.021c6.899,-9.372 15.685,-14.058 26.359,-14.058c9.112,-0 16.791,2.994 23.04,8.981c6.248,5.988 9.372,13.538 9.372,22.65c-0,4.425 -0.781,8.07 -2.343,10.934c-1.562,2.863 -4.036,6.378 -7.42,10.543c-2.864,3.645 -4.881,6.509 -6.053,8.591c-1.171,2.083 -1.757,4.556 -1.757,7.42c-0,4.946 2.083,9.177 6.248,12.691c4.165,3.515 10.023,5.272 17.573,5.272c9.372,0 17.442,-5.141 24.211,-15.425c6.769,-10.283 10.153,-23.495 10.153,-39.636c0,-14.058 -3.124,-26.554 -9.372,-37.488c-6.248,-10.934 -14.514,-19.461 -24.797,-25.578c-10.283,-6.118 -21.413,-9.177 -33.388,-9.177c-17.963,-0 -31.175,8.721 -39.636,26.164c-8.461,17.442 -12.692,39.18 -12.692,65.214c0,30.98 3.71,59.161 11.13,84.544c7.419,25.383 16.661,45.364 27.725,59.942c11.065,14.579 21.804,21.869 32.217,21.869c25.513,-0 38.269,-34.755 38.269,-104.265l0,-1.953c20.567,-3.905 37.098,-12.886 49.595,-26.944c12.496,-14.059 18.744,-31.111 18.744,-51.156c-0,-0.781 0.26,-1.172 0.781,-1.172c0.52,0 0.911,0.26 1.171,0.781Z" style="fill:#e7e3df;fill-rule:nonzero;"/><path d="M830.035,468.079l-0,94.892l-8.592,0c-2.603,-9.372 -5.141,-16.466 -7.614,-21.282c-2.474,-4.816 -5.858,-8.526 -10.153,-11.13c-4.296,-2.603 -10.479,-4.425 -18.549,-5.467l-0,8.591c-0,13.798 1.431,25.513 4.295,35.146c2.864,9.632 6.248,16.922 10.153,21.868c3.905,4.946 7.55,7.94 10.934,8.982l0,4.295l-122.228,0l0,-4.295c3.385,-1.042 7.03,-4.036 10.935,-8.982c3.905,-4.946 7.289,-12.236 10.153,-21.868c2.863,-9.633 4.295,-21.348 4.295,-35.146l0,-9.762l-95.673,-0.781c-5.467,-0 -9.633,-1.172 -12.496,-3.515c-2.864,-2.343 -4.296,-5.337 -4.296,-8.981c-0,-3.905 1.562,-8.722 4.686,-14.449l96.845,-165.574c3.384,-5.727 8.136,-10.348 14.254,-13.863c6.117,-3.514 12.04,-5.272 17.767,-5.272l50.376,0l-0,193.691c8.07,-1.042 14.318,-2.929 18.744,-5.663c4.425,-2.733 7.875,-6.443 10.348,-11.129c2.473,-4.686 4.881,-11.455 7.224,-20.306l8.592,-0Zm-116.371,38.66l0.391,-138.629c-0,-4.686 -1.432,-7.029 -4.296,-7.029c-2.343,-0 -5.076,2.473 -8.2,7.419l-71.463,121.447c-2.343,4.165 -3.514,7.42 -3.514,9.763c-0,5.206 5.727,7.81 17.182,7.81l69.9,-0.781Z" style="fill:#e7e3df;fill-rule:nonzero;"/></g></svg>