<svg width="24" height="24" viewBox="0 0 24 24" fill="none" xmlns="http://www.w3.org/2000/svg" data-reactroot="">
<path stroke-linejoin="round" stroke-width="1" stroke="#9f422f" fill="none" d="M2 6C2 3.79086 3.79086 2 6 2H18C20.2091 2 22 3.79086 22 6V18C22 20.2091 20.2091 22 18 22H6C3.79086 22 2 20.2091 2 18V6Z"></path>
<path stroke-linejoin="round" stroke-width="1" stroke="#9f422f" fill="none" d="M12 16C14.2091 16 16 14.2091 16 12H22V18C22 20.2091 20.2091 22 18 22H6C3.79086 22 2 20.2091 2 18V12H8C8 14.2091 9.79086 16 12 16Z"></path>
<circle stroke-linejoin="round" stroke-width="1" stroke="#9f422f" fill="none" r="4" cy="12" cx="12"></circle>
</svg>
