<?xml version="1.0" encoding="UTF-8" standalone="no"?><!DOCTYPE svg PUBLIC "-//W3C//DTD SVG 1.1//EN" "http://www.w3.org/Graphics/SVG/1.1/DTD/svg11.dtd"><svg width="100%" height="100%" viewBox="0 0 924 924" version="1.1" xmlns="http://www.w3.org/2000/svg" xmlns:xlink="http://www.w3.org/1999/xlink" xml:space="preserve" xmlns:serif="http://www.serif.com/" style="fill-rule:evenodd;clip-rule:evenodd;stroke-linejoin:round;stroke-miterlimit:2;"><rect id="Icon-Dark" serif:id="Icon Dark" x="0.652" y="0.59" width="923.077" height="923.077" style="fill:none;"/><path d="M527.66,639.424c20.609,-0 43.11,-4.732 67.504,-14.195c24.394,-9.463 43.32,-23.237 56.779,-41.322l20.188,-0c-5.888,15.982 -18.19,32.28 -36.906,48.893c-18.716,16.613 -41.848,30.387 -69.397,41.322c-27.548,10.935 -57.094,16.403 -88.638,16.403c-49.208,-0 -93.264,-10.094 -132.168,-30.282c-38.904,-20.188 -69.396,-48.157 -91.477,-83.907c-22.08,-35.749 -33.121,-76.125 -33.121,-121.128c0,-46.264 10.936,-87.271 32.806,-123.02c21.87,-35.75 51.942,-63.719 90.215,-83.907c38.273,-20.188 81.173,-30.282 128.698,-30.282c40.376,0 76.231,5.783 107.565,17.349c31.333,11.566 55.727,28.285 73.181,50.155c17.454,21.87 26.181,47.316 26.181,76.336c0,20.608 -5.152,39.745 -15.456,57.409c-10.304,17.665 -25.445,31.754 -45.423,42.269c-19.978,10.515 -43.635,15.772 -70.973,15.772c-25.235,-0 -47.316,-4.101 -66.242,-12.302c-18.927,-8.202 -33.437,-19.452 -43.531,-33.752c-10.094,-14.3 -15.141,-30.492 -15.141,-48.577c0,-19.347 5.573,-36.591 16.719,-51.732c11.145,-15.141 25.34,-22.712 42.584,-22.712c14.72,0 27.127,4.837 37.221,14.511c10.094,9.673 15.141,21.87 15.141,36.59c0,7.15 -1.262,13.038 -3.785,17.665c-2.524,4.626 -6.519,10.304 -11.987,17.033c-4.626,5.889 -7.886,10.515 -9.778,13.88c-1.893,3.364 -2.839,7.36 -2.839,11.986c-0,7.991 3.365,14.826 10.094,20.504c6.729,5.678 16.192,8.517 28.389,8.517c15.141,-0 28.179,-8.307 39.114,-24.92c10.936,-16.613 16.403,-37.958 16.403,-64.034c0,-33.226 -8.832,-60.354 -26.497,-81.383c-17.664,-21.029 -43.109,-31.543 -76.335,-31.543c-31.544,-0 -58.251,9.358 -80.121,28.073c-21.871,18.716 -38.379,44.477 -49.524,77.283c-11.146,32.805 -16.718,69.816 -16.718,111.034c-0,37.432 8.727,69.501 26.181,96.208c17.454,26.707 39.85,46.685 67.188,59.933c27.338,13.249 55.307,19.873 83.906,19.873Z" style="fill:#333;fill-rule:nonzero;"/><path d="M510.457,640.301c20.608,-0 43.109,-4.732 67.503,-14.195c24.394,-9.463 43.32,-23.237 56.779,-41.322l20.188,-0c-5.888,15.982 -18.19,32.28 -36.906,48.893c-18.716,16.613 -41.848,30.387 -69.397,41.322c-27.548,10.935 -57.094,16.403 -88.637,16.403c-49.209,-0 -93.265,-10.094 -132.169,-30.282c-38.904,-20.188 -69.396,-48.157 -91.477,-83.907c-22.08,-35.749 -33.121,-76.125 -33.121,-121.128c0,-46.264 10.936,-87.271 32.806,-123.02c21.87,-35.75 51.942,-63.719 90.215,-83.907c38.273,-20.188 81.173,-30.282 128.699,-30.282c40.376,0 76.23,5.783 107.564,17.349c31.333,11.567 55.727,28.285 73.181,50.155c17.454,21.87 26.182,47.316 26.182,76.336c-0,20.608 -5.153,39.745 -15.457,57.41c-10.304,17.664 -25.445,31.754 -45.423,42.268c-19.978,10.515 -43.635,15.772 -70.973,15.772c-25.235,0 -47.316,-4.101 -66.242,-12.302c-18.926,-8.201 -33.437,-19.452 -43.531,-33.752c-10.094,-14.3 -15.141,-30.492 -15.141,-48.577c0,-19.347 5.573,-36.591 16.719,-51.732c11.145,-15.141 25.34,-22.711 42.584,-22.711c14.72,-0 27.127,4.836 37.221,14.51c10.094,9.673 15.141,21.87 15.141,36.59c0,7.15 -1.261,13.038 -3.785,17.665c-2.523,4.626 -6.519,10.304 -11.987,17.034c-4.626,5.888 -7.886,10.514 -9.778,13.879c-1.893,3.364 -2.839,7.36 -2.839,11.986c-0,7.991 3.365,14.826 10.094,20.504c6.729,5.678 16.192,8.517 28.389,8.517c15.141,-0 28.179,-8.307 39.115,-24.92c10.935,-16.613 16.402,-37.958 16.402,-64.034c0,-33.226 -8.832,-60.353 -26.496,-81.383c-17.665,-21.029 -43.11,-31.543 -76.336,-31.543c-31.544,-0 -58.251,9.358 -80.121,28.074c-21.871,18.716 -38.379,44.476 -49.524,77.282c-11.146,32.805 -16.718,69.817 -16.718,111.034c-0,37.432 8.727,69.501 26.181,96.208c17.454,26.707 39.85,46.685 67.188,59.933c27.338,13.249 55.307,19.873 83.907,19.873Z" style="fill:#636363;fill-rule:nonzero;"/></svg>