<?xml version="1.0" encoding="UTF-8" standalone="no"?><!DOCTYPE svg PUBLIC "-//W3C//DTD SVG 1.1//EN" "http://www.w3.org/Graphics/SVG/1.1/DTD/svg11.dtd"><svg width="100%" height="100%" viewBox="0 0 924 924" version="1.1" xmlns="http://www.w3.org/2000/svg" xmlns:xlink="http://www.w3.org/1999/xlink" xml:space="preserve" xmlns:serif="http://www.serif.com/" style="fill-rule:evenodd;clip-rule:evenodd;stroke-linejoin:round;stroke-miterlimit:2;"><rect id="Icon-Light" serif:id="Icon Light" x="0.54" y="0" width="923.077" height="923.077" style="fill:none;"/><path d="M527.549,638.833c20.608,0 43.109,-4.731 67.503,-14.194c24.394,-9.463 43.32,-23.237 56.779,-41.323l20.188,0c-5.888,15.983 -18.19,32.28 -36.906,48.893c-18.716,16.613 -41.848,30.387 -69.396,41.323c-27.549,10.935 -57.095,16.402 -88.638,16.402c-49.209,0 -93.265,-10.094 -132.169,-30.282c-38.904,-20.188 -69.396,-48.156 -91.477,-83.906c-22.08,-35.75 -33.12,-76.126 -33.12,-121.128c-0,-46.264 10.935,-87.271 32.805,-123.021c21.87,-35.749 51.942,-63.718 90.215,-83.906c38.273,-20.188 81.173,-30.282 128.699,-30.282c40.376,-0 76.23,5.783 107.564,17.349c31.333,11.566 55.727,28.284 73.181,50.155c17.455,21.87 26.182,47.315 26.182,76.335c-0,20.609 -5.152,39.746 -15.457,57.41c-10.304,17.665 -25.445,31.754 -45.423,42.269c-19.977,10.514 -43.635,15.772 -70.973,15.772c-25.235,-0 -47.316,-4.101 -66.242,-12.302c-18.926,-8.202 -33.436,-19.452 -43.53,-33.752c-10.094,-14.3 -15.141,-30.493 -15.141,-48.578c-0,-19.346 5.572,-36.59 16.718,-51.731c11.145,-15.141 25.34,-22.712 42.584,-22.712c14.72,0 27.127,4.837 37.221,14.51c10.094,9.674 15.141,21.871 15.141,36.591c0,7.15 -1.261,13.038 -3.785,17.664c-2.523,4.627 -6.519,10.305 -11.986,17.034c-4.627,5.888 -7.886,10.515 -9.779,13.879c-1.893,3.365 -2.839,7.361 -2.839,11.987c0,7.991 3.365,14.826 10.094,20.503c6.729,5.678 16.192,8.517 28.389,8.517c15.141,0 28.179,-8.306 39.115,-24.919c10.935,-16.613 16.402,-37.958 16.402,-64.034c0,-33.226 -8.832,-60.354 -26.496,-81.383c-17.665,-21.029 -43.11,-31.544 -76.336,-31.544c-31.544,0 -58.251,9.358 -80.121,28.074c-21.871,18.716 -38.379,44.477 -49.524,77.282c-11.145,32.806 -16.718,69.817 -16.718,111.034c-0,37.432 8.727,69.502 26.181,96.209c17.454,26.707 39.85,46.685 67.188,59.933c27.338,13.248 55.307,19.872 83.907,19.872Z" style="fill:#a4a4a4;fill-rule:nonzero;"/><path d="M510.345,639.711c20.608,-0 43.11,-4.732 67.503,-14.195c24.394,-9.463 43.32,-23.237 56.779,-41.322l20.188,-0c-5.888,15.982 -18.19,32.279 -36.906,48.892c-18.716,16.613 -41.848,30.388 -69.396,41.323c-27.549,10.935 -57.095,16.402 -88.638,16.402c-49.209,0 -93.265,-10.094 -132.169,-30.282c-38.904,-20.188 -69.396,-48.156 -91.476,-83.906c-22.081,-35.749 -33.121,-76.125 -33.121,-121.128c-0,-46.264 10.935,-87.271 32.805,-123.021c21.87,-35.749 51.942,-63.718 90.215,-83.906c38.273,-20.188 81.173,-30.282 128.699,-30.282c40.376,0 76.23,5.783 107.564,17.349c31.333,11.566 55.727,28.284 73.181,50.155c17.455,21.87 26.182,47.315 26.182,76.336c-0,20.608 -5.152,39.745 -15.457,57.409c-10.304,17.665 -25.445,31.754 -45.423,42.269c-19.977,10.514 -43.635,15.772 -70.973,15.772c-25.235,-0 -47.316,-4.101 -66.242,-12.302c-18.926,-8.202 -33.436,-19.452 -43.53,-33.752c-10.094,-14.3 -15.141,-30.492 -15.141,-48.578c-0,-19.346 5.572,-36.59 16.718,-51.731c11.145,-15.141 25.34,-22.712 42.584,-22.712c14.72,0 27.127,4.837 37.221,14.51c10.094,9.674 15.141,21.871 15.141,36.591c0,7.15 -1.261,13.038 -3.785,17.665c-2.523,4.626 -6.519,10.304 -11.986,17.033c-4.627,5.888 -7.886,10.515 -9.779,13.879c-1.893,3.365 -2.839,7.361 -2.839,11.987c0,7.991 3.365,14.826 10.094,20.504c6.729,5.677 16.193,8.516 28.389,8.516c15.141,0 28.18,-8.306 39.115,-24.919c10.935,-16.613 16.402,-37.958 16.402,-64.034c0,-33.226 -8.832,-60.354 -26.496,-81.383c-17.665,-21.029 -43.11,-31.544 -76.336,-31.544c-31.544,0 -58.251,9.358 -80.121,28.074c-21.871,18.716 -38.379,44.477 -49.524,77.282c-11.145,32.806 -16.718,69.817 -16.718,111.034c-0,37.432 8.727,69.502 26.181,96.209c17.454,26.707 39.85,46.685 67.188,59.933c27.338,13.248 55.307,19.873 83.907,19.873Z" style="fill:#e7e3df;fill-rule:nonzero;"/></svg>