<svg viewBox="0 0 924 924" xmlns="http://www.w3.org/2000/svg" xml:space="preserve" style="fill-rule:evenodd;clip-rule:evenodd;stroke-linejoin:round;stroke-miterlimit:2"><path style="fill:none" d="M.54 0h923.077v923.077H.54z"/><path d="M527.549 638.833c20.608 0 43.109-4.731 67.503-14.194 24.394-9.463 43.32-23.237 56.779-41.323h20.188c-5.888 15.983-18.19 32.28-36.906 48.893-18.716 16.613-41.848 30.387-69.396 41.323-27.549 10.935-57.095 16.402-88.638 16.402-49.209 0-93.265-10.094-132.169-30.282-38.904-20.188-69.396-48.156-91.477-83.906-22.08-35.75-33.12-76.126-33.12-121.128 0-46.264 10.935-87.271 32.805-123.021 21.87-35.749 51.942-63.718 90.215-83.906 38.273-20.188 81.173-30.282 128.699-30.282 40.376 0 76.23 5.783 107.564 17.349 31.333 11.566 55.727 28.284 73.181 50.155 17.455 21.87 26.182 47.315 26.182 76.335 0 20.609-5.152 39.746-15.457 57.41-10.304 17.665-25.445 31.754-45.423 42.269-19.977 10.514-43.635 15.772-70.973 15.772-25.235 0-47.316-4.101-66.242-12.302-18.926-8.202-33.436-19.452-43.53-33.752-10.094-14.3-15.141-30.493-15.141-48.578 0-19.346 5.572-36.59 16.718-51.731 11.145-15.141 25.34-22.712 42.584-22.712 14.72 0 27.127 4.837 37.221 14.51 10.094 9.674 15.141 21.871 15.141 36.591 0 7.15-1.261 13.038-3.785 17.664-2.523 4.627-6.519 10.305-11.986 17.034-4.627 5.888-7.886 10.515-9.779 13.879-1.893 3.365-2.839 7.361-2.839 11.987 0 7.991 3.365 14.826 10.094 20.503 6.729 5.678 16.192 8.517 28.389 8.517 15.141 0 28.179-8.306 39.115-24.919 10.935-16.613 16.402-37.958 16.402-64.034 0-33.226-8.832-60.354-26.496-81.383-17.665-21.029-43.11-31.544-76.336-31.544-31.544 0-58.251 9.358-80.121 28.074-21.871 18.716-38.379 44.477-49.524 77.282-11.145 32.806-16.718 69.817-16.718 111.034 0 37.432 8.727 69.502 26.181 96.209 17.454 26.707 39.85 46.685 67.188 59.933 27.338 13.248 55.307 19.872 83.907 19.872Z" style="fill:#a4a4a4;fill-rule:nonzero"/><path d="M510.345 639.711c20.608 0 43.11-4.732 67.503-14.195 24.394-9.463 43.32-23.237 56.779-41.322h20.188c-5.888 15.982-18.19 32.279-36.906 48.892-18.716 16.613-41.848 30.388-69.396 41.323-27.549 10.935-57.095 16.402-88.638 16.402-49.209 0-93.265-10.094-132.169-30.282-38.904-20.188-69.396-48.156-91.476-83.906-22.081-35.749-33.121-76.125-33.121-121.128 0-46.264 10.935-87.271 32.805-123.021 21.87-35.749 51.942-63.718 90.215-83.906 38.273-20.188 81.173-30.282 128.699-30.282 40.376 0 76.23 5.783 107.564 17.349 31.333 11.566 55.727 28.284 73.181 50.155 17.455 21.87 26.182 47.315 26.182 76.336 0 20.608-5.152 39.745-15.457 57.409-10.304 17.665-25.445 31.754-45.423 42.269-19.977 10.514-43.635 15.772-70.973 15.772-25.235 0-47.316-4.101-66.242-12.302-18.926-8.202-33.436-19.452-43.53-33.752-10.094-14.3-15.141-30.492-15.141-48.578 0-19.346 5.572-36.59 16.718-51.731 11.145-15.141 25.34-22.712 42.584-22.712 14.72 0 27.127 4.837 37.221 14.51 10.094 9.674 15.141 21.871 15.141 36.591 0 7.15-1.261 13.038-3.785 17.665-2.523 4.626-6.519 10.304-11.986 17.033-4.627 5.888-7.886 10.515-9.779 13.879-1.893 3.365-2.839 7.361-2.839 11.987 0 7.991 3.365 14.826 10.094 20.504 6.729 5.677 16.193 8.516 28.389 8.516 15.141 0 28.18-8.306 39.115-24.919 10.935-16.613 16.402-37.958 16.402-64.034 0-33.226-8.832-60.354-26.496-81.383-17.665-21.029-43.11-31.544-76.336-31.544-31.544 0-58.251 9.358-80.121 28.074-21.871 18.716-38.379 44.477-49.524 77.282-11.145 32.806-16.718 69.817-16.718 111.034 0 37.432 8.727 69.502 26.181 96.209 17.454 26.707 39.85 46.685 67.188 59.933 27.338 13.248 55.307 19.873 83.907 19.873Z" style="fill:#e7e3df;fill-rule:nonzero"/></svg>