<?xml version="1.0" encoding="UTF-8" standalone="no"?><!DOCTYPE svg PUBLIC "-//W3C//DTD SVG 1.1//EN" "http://www.w3.org/Graphics/SVG/1.1/DTD/svg11.dtd"><svg width="100%" height="100%" viewBox="0 0 924 924" version="1.1" xmlns="http://www.w3.org/2000/svg" xmlns:xlink="http://www.w3.org/1999/xlink" xml:space="preserve" xmlns:serif="http://www.serif.com/" style="fill-rule:evenodd;clip-rule:evenodd;stroke-linejoin:round;stroke-miterlimit:2;"><rect id="Light" x="0.142" y="0.281" width="923.077" height="923.077" style="fill:none;"/><g><g><path d="M230.972,378.18c6.942,0 14.521,-1.593 22.737,-4.781c8.217,-3.187 14.592,-7.827 19.125,-13.919l6.8,0c-1.983,5.384 -6.127,10.873 -12.431,16.469c-6.304,5.596 -14.096,10.236 -23.375,13.919c-9.279,3.683 -19.231,5.525 -29.856,5.525c-16.575,-0 -31.415,-3.4 -44.519,-10.2c-13.104,-6.8 -23.375,-16.221 -30.812,-28.263c-7.438,-12.041 -11.157,-25.641 -11.157,-40.8c0,-15.583 3.684,-29.395 11.05,-41.437c7.367,-12.042 17.496,-21.463 30.388,-28.263c12.892,-6.8 27.342,-10.2 43.35,-10.2c13.6,0 25.677,1.948 36.231,5.844c10.554,3.896 18.771,9.527 24.65,16.894c5.879,7.367 8.819,15.937 8.819,25.712c-0,6.942 -1.735,13.388 -5.206,19.338c-3.471,5.95 -8.571,10.696 -15.3,14.237c-6.729,3.542 -14.698,5.313 -23.907,5.313c-8.5,-0 -15.937,-1.381 -22.312,-4.144c-6.375,-2.762 -11.263,-6.552 -14.663,-11.369c-3.4,-4.816 -5.1,-10.27 -5.1,-16.362c0,-6.517 1.878,-12.325 5.632,-17.425c3.754,-5.1 8.535,-7.65 14.343,-7.65c4.959,-0 9.138,1.629 12.538,4.887c3.4,3.259 5.1,7.367 5.1,12.325c-0,2.409 -0.425,4.392 -1.275,5.95c-0.85,1.559 -2.196,3.471 -4.038,5.738c-1.558,1.983 -2.656,3.542 -3.293,4.675c-0.638,1.133 -0.957,2.479 -0.957,4.037c0,2.692 1.134,4.994 3.4,6.907c2.267,1.912 5.455,2.868 9.563,2.868c5.1,0 9.492,-2.797 13.175,-8.393c3.683,-5.596 5.525,-12.786 5.525,-21.569c-0,-11.192 -2.975,-20.329 -8.925,-27.413c-5.95,-7.083 -14.521,-10.625 -25.713,-10.625c-10.625,0 -19.62,3.153 -26.987,9.457c-7.367,6.304 -12.927,14.981 -16.681,26.031c-3.754,11.05 -5.632,23.517 -5.632,37.4c0,12.608 2.94,23.41 8.819,32.406c5.879,8.996 13.423,15.725 22.631,20.188c9.209,4.462 18.63,6.693 28.263,6.693Z" style="fill:#e7e3df;fill-rule:nonzero;"/><path d="M329.997,225.605c3.542,0 5.702,1.311 6.481,3.932c0.779,2.621 1.169,6.339 1.169,11.156l-0,110.925c-0,7.508 0.779,13.883 2.337,19.125c1.559,5.242 3.4,9.208 5.525,11.9c2.125,2.692 4.109,4.321 5.95,4.887l0,2.338l-66.512,-0l-0,-2.338c1.842,-0.566 3.825,-2.195 5.95,-4.887c2.125,-2.692 3.967,-6.658 5.525,-11.9c1.558,-5.242 2.337,-11.617 2.337,-19.125l0.213,-69.275c-0,-8.358 -1.346,-14.663 -4.038,-18.913c-2.691,-4.25 -6.941,-7.366 -12.75,-9.35l0,-2.762c4.109,-0.708 8.359,-2.338 12.75,-4.888c4.392,-2.55 9.634,-6.02 15.725,-10.412c5.242,-3.683 9.244,-6.34 12.007,-7.969c2.762,-1.629 5.206,-2.444 7.331,-2.444Z" style="fill:#e7e3df;fill-rule:nonzero;"/><path d="M390.984,281.918c-5.808,-0 -10.766,-2.054 -14.875,-6.163c-4.108,-4.108 -6.162,-9.066 -6.162,-14.875c-0,-5.808 2.054,-10.731 6.162,-14.768c4.109,-4.038 9.067,-6.057 14.875,-6.057c5.809,0 10.732,2.019 14.769,6.057c4.038,4.037 6.056,8.96 6.056,14.768c0,5.95 -2.018,10.944 -6.056,14.982c-4.037,4.037 -8.96,6.056 -14.769,6.056Zm11.688,3.825c3.117,-0 5.171,1.452 6.162,4.356c0.992,2.904 1.488,6.552 1.488,10.944l-0,50.575c-0,7.508 0.779,13.883 2.337,19.125c1.559,5.242 3.4,9.208 5.525,11.9c2.125,2.692 4.109,4.321 5.95,4.887l0,2.338l-66.3,-0l0,-2.338c1.842,-0.566 3.825,-2.195 5.95,-4.887c2.125,-2.692 3.967,-6.658 5.525,-11.9c1.559,-5.242 2.338,-11.617 2.338,-19.125l-0,-8.925c-0,-8.358 -1.346,-14.663 -4.038,-18.913c-2.691,-4.25 -6.941,-7.366 -12.75,-9.35l0,-2.762c4.109,-0.708 8.43,-2.408 12.963,-5.1c4.533,-2.692 9.704,-6.163 15.512,-10.413c5.242,-3.683 9.244,-6.339 12.007,-7.968c2.762,-1.629 5.206,-2.444 7.331,-2.444Z" style="fill:#e7e3df;fill-rule:nonzero;"/><path d="M497.234,223.905c9.209,0 16.434,2.125 21.675,6.375c5.242,4.25 7.863,10.13 7.863,17.638c-0,3.967 -1.346,7.296 -4.038,9.987c-2.691,2.692 -5.879,4.038 -9.562,4.038c-3.967,-0 -7.296,-1.346 -9.988,-4.038c-2.691,-2.691 -4.037,-6.02 -4.037,-9.987c-0,-1.983 0.425,-3.613 1.275,-4.888c0.85,-1.275 2.09,-2.585 3.719,-3.931c1.629,-1.346 2.443,-2.444 2.443,-3.294c0,-2.125 -1.912,-3.187 -5.737,-3.187c-7.083,-0 -12.148,3.187 -15.194,9.562c-3.046,6.375 -4.569,15.867 -4.569,28.475l0,19.338l22.525,-0c0.567,-0 0.85,1.417 0.85,4.25c0,2.833 -0.283,4.25 -0.85,4.25l-16.15,-0c-2.975,-0 -4.781,0.425 -5.418,1.275c-0.638,0.85 -0.957,2.55 -0.957,5.1l0,46.75c0,7.508 0.78,13.883 2.338,19.125c1.558,5.242 3.4,9.208 5.525,11.9c2.125,2.692 4.108,4.321 5.95,4.887l-0,2.338l-66.3,-0l-0,-2.338c1.842,-0.566 3.825,-2.195 5.95,-4.887c2.125,-2.692 3.967,-6.658 5.525,-11.9c1.558,-5.242 2.337,-11.617 2.337,-19.125l0,-46.75c0,-2.55 -0.318,-4.25 -0.956,-5.1c-0.637,-0.85 -2.444,-1.275 -5.419,-1.275l-6.8,-0c-0.141,-0 -0.318,-0.46 -0.531,-1.381c-0.212,-0.921 -0.319,-1.877 -0.319,-2.869c0,-0.992 0.107,-1.948 0.319,-2.869c0.213,-0.921 0.39,-1.381 0.531,-1.381l13.175,-0l0,-7.225c0,-10.2 2.09,-19.798 6.269,-28.794c4.179,-8.996 10.377,-16.256 18.594,-21.781c8.217,-5.525 18.204,-8.288 29.962,-8.288Z" style="fill:#e7e3df;fill-rule:nonzero;"/><path d="M606.672,228.58c7.65,0 13.565,1.807 17.744,5.419c4.179,3.613 6.268,8.677 6.268,15.194c0,6.375 -1.558,11.581 -4.675,15.619c-3.116,4.037 -7.791,6.056 -14.025,6.056c-2.691,-0 -4.993,-0.283 -6.906,-0.85c-1.912,-0.567 -3.86,-1.417 -5.844,-2.55c-1.841,-0.992 -3.47,-1.7 -4.887,-2.125c-1.417,-0.425 -3.046,-0.638 -4.888,-0.638c-2.55,0 -5.064,0.744 -7.543,2.232c-2.479,1.487 -6.127,4.073 -10.944,7.756l-3.613,2.762c-3.966,3.4 -5.95,6.517 -5.95,9.35l0,76.925c0,3.825 0.461,6.8 1.382,8.925c0.921,2.125 1.983,3.861 3.187,5.207c1.204,1.346 2.019,2.302 2.444,2.868l-0,2.125c-1.558,3.4 -3.896,6.269 -7.013,8.607c-3.116,2.337 -6.8,3.506 -11.05,3.506c-8.925,-0 -15.795,-2.515 -20.612,-7.544c-4.817,-5.029 -7.225,-11.935 -7.225,-20.719l-0,-61.837c-0,-2.55 -0.319,-4.25 -0.956,-5.1c-0.638,-0.85 -2.444,-1.275 -5.419,-1.275l-7.863,-0l0,-0.213c-0.425,-0.425 -0.637,-1.77 -0.637,-4.037c-0,-2.833 0.283,-4.25 0.85,-4.25l0.425,-0c6.658,-0 12.679,-2.09 18.062,-6.269c5.384,-4.179 10.023,-9.137 13.919,-14.875c3.896,-5.737 8.465,-13.423 13.706,-23.056l2.55,-4.675l4.25,-0l0,29.537c3.259,-2.975 6.234,-6.056 8.925,-9.243c2.692,-3.188 5.809,-7.119 9.35,-11.794c5.525,-7.367 10.165,-12.715 13.919,-16.044c3.754,-3.329 8.111,-4.994 13.069,-4.994Z" style="fill:#e7e3df;fill-rule:nonzero;"/><path d="M620.272,285.743c11.617,-0 21.923,2.408 30.919,7.225c8.996,4.817 15.937,11.404 20.825,19.762c4.887,8.359 7.331,17.567 7.331,27.625c-0,9.917 -2.408,19.019 -7.225,27.307c-4.817,8.287 -11.369,14.875 -19.656,19.762c-8.288,4.888 -17.461,7.331 -27.519,7.331c-10.058,0 -19.267,-2.443 -27.625,-7.331c-8.358,-4.887 -14.946,-11.475 -19.763,-19.762c-4.816,-8.288 -7.225,-17.39 -7.225,-27.307c0,-4.816 0.709,-9.845 2.125,-15.087c0.142,-0.425 0.284,-0.638 0.425,-0.638c0.142,0 0.284,0.213 0.425,0.638c1.417,7.508 5.065,13.706 10.944,18.594c5.879,4.887 12.856,7.331 20.931,7.331c1.7,-0 2.975,-0.071 3.825,-0.213c2.267,11.192 5.171,19.798 8.713,25.819c3.542,6.021 7.579,9.031 12.112,9.031c4.25,0 7.544,-2.443 9.882,-7.331c2.337,-4.887 3.506,-11.864 3.506,-20.931c-0,-6.233 -0.496,-12.75 -1.488,-19.55c-1.983,-14.025 -5.489,-24.756 -10.518,-32.194c-5.029,-7.437 -10.873,-11.156 -17.532,-11.156c-4.675,-0 -8.57,1.346 -11.687,4.037c-3.117,2.692 -4.675,5.738 -4.675,9.138c-0,0.85 0.177,1.381 0.531,1.594c0.354,0.212 0.886,0.177 1.594,-0.107c1.7,-0.566 3.612,-0.85 5.737,-0.85c5.384,0 9.988,1.878 13.813,5.632c3.825,3.754 5.737,8.252 5.737,13.493c0,5.242 -1.912,9.705 -5.737,13.388c-3.825,3.683 -8.429,5.525 -13.813,5.525c-7.933,-0 -14.52,-2.621 -19.762,-7.863c-5.242,-5.241 -7.863,-11.616 -7.863,-19.125c0,-5.666 1.878,-11.12 5.632,-16.362c3.754,-5.242 8.925,-9.456 15.512,-12.644c6.588,-3.187 13.777,-4.781 21.569,-4.781Z" style="fill:#e7e3df;fill-rule:nonzero;"/><path d="M799.834,351.618c0,10.908 1.063,19.373 3.188,25.394c2.125,6.021 4.321,9.527 6.587,10.518l0,2.338l-58.012,-0l-0,-2.338c2.125,-0.991 4.25,-4.497 6.375,-10.518c2.125,-6.021 3.187,-14.486 3.187,-25.394l0,-26.35c0,-6.517 -0.991,-11.935 -2.975,-16.256c-1.983,-4.321 -4.887,-6.482 -8.712,-6.482c-8.358,0 -12.538,8.288 -12.538,24.863l0,24.225c0,10.908 1.063,19.373 3.188,25.394c2.125,6.021 4.321,9.527 6.587,10.518l0,2.338l-62.262,-0l-0,-2.338c1.842,-0.566 3.825,-2.195 5.95,-4.887c2.125,-2.692 3.967,-6.658 5.525,-11.9c1.558,-5.242 2.337,-11.617 2.337,-19.125l0,-8.925c0,-8.358 -1.345,-14.663 -4.037,-18.913c-2.692,-4.25 -6.942,-7.366 -12.75,-9.35l-0,-2.762c4.108,-0.708 8.429,-2.408 12.962,-5.1c4.534,-2.692 9.705,-6.163 15.513,-10.413c5.242,-3.683 9.244,-6.339 12.006,-7.968c2.763,-1.629 5.206,-2.444 7.331,-2.444c3.117,-0 5.171,1.452 6.163,4.356c0.992,2.904 1.487,6.552 1.487,10.944l0,0.425c8.925,-10.2 19.621,-15.3 32.088,-15.3c10.625,-0 18.417,3.612 23.375,10.837c4.958,7.225 7.437,15.867 7.437,25.925l0,28.688Z" style="fill:#e7e3df;fill-rule:nonzero;"/></g><g><path d="M259.786,546.975c20.849,-0 38.164,3.249 51.944,9.746c13.781,6.498 20.671,16.672 20.671,30.524c-0,7.14 -1.928,12.674 -5.784,16.601c-3.855,3.927 -9.139,5.89 -15.851,5.89c-7.425,0 -13.173,-2.07 -17.243,-6.212c-4.07,-4.141 -6.105,-10.496 -6.105,-19.064c0,-6.854 -4.427,-12.138 -13.28,-15.851c-8.854,-3.713 -21.492,-5.569 -37.914,-5.569c-7.426,0 -14.637,0.357 -21.635,1.071c-6.997,0.714 -16.065,1.785 -27.204,3.213c-12.423,1.571 -22.419,2.713 -29.988,3.427c-7.568,0.714 -15.708,1.071 -24.419,1.071c-19.136,-0.856 -35.308,-6.104 -48.517,-15.744c-13.209,-9.639 -23.098,-22.598 -29.667,-38.877c-6.569,-16.28 -9.854,-34.773 -9.854,-55.479c0,-18.279 3.678,-34.13 11.032,-47.553c7.354,-13.423 17.493,-23.67 30.417,-30.738c12.923,-7.069 27.596,-10.675 44.018,-10.817c13.709,-0 25.883,1.963 36.522,5.89c10.639,3.927 18.921,9.604 24.848,17.029c5.926,7.426 8.889,16.065 8.889,25.919c0,6.997 -1.749,13.495 -5.248,19.492c-3.499,5.998 -8.639,10.782 -15.423,14.352c-6.783,3.57 -14.815,5.355 -24.097,5.355c-8.568,-0 -16.066,-1.392 -22.492,-4.177c-6.426,-2.785 -11.352,-6.605 -14.78,-11.46c-3.427,-4.855 -5.141,-10.353 -5.141,-16.493c0,-6.569 1.893,-12.424 5.677,-17.565c3.784,-5.141 8.604,-7.711 14.459,-7.711c4.998,-0 9.21,1.642 12.637,4.926c3.428,3.285 5.141,7.426 5.141,12.424c0,2.428 -0.428,4.427 -1.285,5.998c-0.857,1.571 -2.213,3.498 -4.07,5.783c-1.571,1.999 -2.677,3.57 -3.32,4.713c-0.642,1.142 -0.964,2.499 -0.964,4.07c0,2.713 1.143,5.033 3.427,6.961c2.285,1.928 5.498,2.892 9.64,2.892c5.14,-0 9.567,-2.82 13.28,-8.461c3.713,-5.641 5.569,-12.888 5.569,-21.742c0,-11.281 -2.998,-20.492 -8.996,-27.632c-5.998,-7.14 -14.637,-10.71 -25.919,-10.71c-16.136,-0 -28.453,7.283 -36.95,21.849c-8.496,14.565 -12.745,34.629 -12.745,60.191c0,30.274 6.284,53.8 18.85,70.58c12.567,16.779 30.703,25.168 54.408,25.168c5.141,0 11.067,-0.499 17.779,-1.499c6.711,-1 15.422,-2.57 26.132,-4.713c12.567,-2.284 22.884,-4.034 30.953,-5.247c8.068,-1.214 15.601,-1.821 22.598,-1.821Z" style="fill:#e7e3df;fill-rule:nonzero;"/><path d="M283.134,417.168c6.998,-0 12.995,2.499 17.993,7.497c4.998,4.998 7.497,10.996 7.497,17.993c0,6.997 -2.499,12.995 -7.497,17.993c-4.998,4.998 -10.995,7.497 -17.993,7.497c-6.14,0 -11.21,-2.285 -15.208,-6.854c-3.999,-4.57 -5.998,-9.854 -5.998,-15.851c0,-2.428 0.429,-4.927 1.285,-7.498c0.429,-1.57 0.643,-2.641 0.643,-3.213c-0,-0.571 -0.214,-0.856 -0.643,-0.856c-0.428,-0 -1.356,0.499 -2.784,1.499c-2.999,2.428 -5.462,5.712 -7.39,9.853c-1.928,4.142 -2.892,8.925 -2.892,14.352l-0,29.56c-0,7.568 0.785,13.995 2.356,19.278c1.571,5.284 3.427,9.282 5.569,11.996c2.142,2.713 4.142,4.355 5.998,4.926l0,2.357l-66.831,-0l-0,-2.357c1.856,-0.571 3.855,-2.213 5.997,-4.926c2.143,-2.714 3.999,-6.712 5.57,-11.996c1.571,-5.283 2.356,-11.71 2.356,-19.278l0,-8.997c0,-8.425 -1.357,-14.78 -4.07,-19.064c-2.713,-4.284 -6.997,-7.425 -12.852,-9.425l-0,-2.784c4.141,-0.714 8.497,-2.428 13.066,-5.141c4.57,-2.713 9.782,-6.212 15.637,-10.496c5.284,-3.713 9.318,-6.39 12.103,-8.033c2.784,-1.642 5.248,-2.463 7.39,-2.463c5.141,0 7.711,4.855 7.711,14.566c3.856,-6.141 8.247,-11.032 13.173,-14.673c4.927,-3.642 11.532,-5.462 19.814,-5.462Z" style="fill:#e7e3df;fill-rule:nonzero;"/><path d="M368.173,470.076c-4.427,-0 -7.676,-0.428 -9.746,-1.285c-2.071,-0.857 -3.749,-2 -5.034,-3.428l-2.142,0.215c-0.714,2.856 -1.071,5.426 -1.071,7.711c-0,5.998 2.035,10.853 6.105,14.566c4.069,3.713 10.174,5.569 18.314,5.569c6.712,0 12.709,-1.499 17.993,-4.498c5.284,-2.999 9.425,-6.998 12.424,-11.996c2.999,-4.998 4.498,-10.353 4.498,-16.065c-0,-6.426 -1.856,-12.566 -5.569,-18.421c-3.713,-5.855 -9.318,-10.603 -16.815,-14.245c-7.497,-3.641 -16.601,-5.462 -27.311,-5.462c-10.139,0 -19.421,2.463 -27.847,7.39c-8.425,4.927 -15.065,11.603 -19.92,20.028c-4.856,8.425 -7.283,17.636 -7.283,27.632c-0,9.996 2.427,19.171 7.283,27.525c4.855,8.354 11.495,14.995 19.92,19.921c8.426,4.927 17.708,7.39 27.847,7.39c12.995,0 23.562,-2.892 31.702,-8.675c8.14,-5.784 13.709,-12.602 16.708,-20.456l-20.564,-0c-1.571,5.997 -3.498,10.567 -5.783,13.709c-2.285,3.141 -5.998,4.712 -11.139,4.712c-4.569,0 -8.853,-1.678 -12.852,-5.034c-3.998,-3.356 -7.211,-8.354 -9.639,-14.994c-2.428,-6.64 -3.642,-14.673 -3.642,-24.098c0,-16.136 2.214,-27.739 6.641,-34.808c4.427,-7.068 10.067,-10.603 16.922,-10.603c4.141,0 7.89,0.821 11.245,2.464c3.356,1.642 5.962,3.748 7.819,6.319c1.856,2.57 2.785,5.212 2.785,7.925c-0,5.998 -2.071,10.996 -6.212,14.994c-4.142,3.999 -9.354,5.998 -15.637,5.998Z" style="fill:#e7e3df;fill-rule:nonzero;"/><path d="M524.969,501.35c0,3.855 0.5,6.854 1.5,8.996c0.999,2.142 2.07,3.891 3.213,5.248c1.142,1.357 1.928,2.321 2.356,2.892l0,2.142c-1.571,3.427 -3.927,6.319 -7.069,8.675c-3.141,2.356 -6.854,3.534 -11.138,3.534c-5.141,0 -9.711,-0.999 -13.709,-2.998c-3.999,-2 -7.283,-4.57 -9.853,-7.712c-1.571,-1.571 -2.928,-2.356 -4.07,-2.356c-0.857,0 -2.071,0.5 -3.642,1.499c-8.711,7.712 -17.35,11.567 -25.918,11.567c-7.283,0 -13.924,-1.713 -19.921,-5.14c-5.998,-3.428 -10.71,-8.069 -14.138,-13.924c-3.427,-5.855 -5.141,-12.281 -5.141,-19.278c0,-7.568 2.071,-14.494 6.212,-20.778c4.142,-6.283 9.711,-11.245 16.708,-14.887c6.998,-3.641 14.637,-5.462 22.92,-5.462c9.139,0 16.565,1.714 22.277,5.141c-0.714,-8.997 -2.535,-15.78 -5.462,-20.349c-2.928,-4.57 -7.533,-6.855 -13.816,-6.855c-5.998,0 -10.925,1.964 -14.78,5.891c-3.856,3.927 -5.784,8.318 -5.784,13.173l-4.926,1.928c-2.571,-1 -4.463,-2.285 -5.677,-3.856c-1.214,-1.57 -1.82,-3.712 -1.82,-6.426c-0,-5.569 3.462,-10.174 10.388,-13.816c6.926,-3.641 15.102,-5.462 24.527,-5.462c18.707,0 32.844,4.534 42.412,13.602c9.568,9.068 14.351,21.17 14.351,36.307l0,28.704Zm-68.33,-9.854c-0,8.426 1.071,15.351 3.213,20.778c2.142,5.426 4.855,8.14 8.139,8.14c2.428,-0 5.355,-1.571 8.783,-4.713c3.855,-3.998 6.319,-8.425 7.39,-13.28c1.071,-4.856 1.606,-11.639 1.606,-20.35l0,-13.28c-3.855,-2.856 -7.925,-4.284 -12.209,-4.284c-5.57,-0 -9.782,2.142 -12.638,6.426c-2.856,4.284 -4.284,11.138 -4.284,20.563Z" style="fill:#e7e3df;fill-rule:nonzero;"/><path d="M612.793,541.406c5.141,-0 9.532,1.999 13.173,5.997c3.642,3.999 5.462,8.64 5.462,13.923c0,9.425 -3.855,16.28 -11.567,20.564c-7.711,4.284 -16.636,6.426 -26.775,6.426c-17.279,-0 -29.881,-5.855 -37.807,-17.565c-7.925,-11.709 -11.888,-27.703 -11.888,-47.981l-0,-80.755c-0,-2.57 -0.321,-4.284 -0.964,-5.141c-0.643,-0.856 -2.463,-1.285 -5.462,-1.285l-7.712,0c-0.571,0 -0.856,-1.428 -0.856,-4.284c-0,-2.856 0.285,-4.284 0.856,-4.284l0.215,0c6.711,0 12.816,-2.071 18.314,-6.212c5.498,-4.141 10.246,-9.175 14.245,-15.101c3.998,-5.926 8.568,-13.673 13.709,-23.241l2.57,-4.713l4.284,0l0,49.267l21.635,0c0.571,0 0.856,1.428 0.856,4.284c0,2.856 -0.285,4.284 -0.856,4.284l-15.423,0c-3.713,0 -5.784,1 -6.212,2.999l0,112.242c0,7.426 1.142,14.102 3.427,20.028c2.285,5.927 5.498,8.89 9.639,8.89c3.713,-0 5.57,-0.714 5.57,-2.142c-0,-0.714 -0.25,-1.392 -0.75,-2.035c-0.5,-0.643 -1.035,-1.321 -1.607,-2.035c-1.713,-1.714 -3.106,-3.57 -4.177,-5.569c-1.071,-2 -1.606,-4.641 -1.606,-7.926c-0,-5.283 1.963,-9.71 5.891,-13.28c3.927,-3.57 8.532,-5.355 13.816,-5.355Z" style="fill:#e7e3df;fill-rule:nonzero;"/><path d="M645.994,422.737c3.142,0 5.212,1.464 6.212,4.391c1,2.928 1.499,6.605 1.499,11.032l0,50.98c0,7.568 0.786,13.995 2.357,19.278c1.57,5.284 3.427,9.282 5.569,11.996c2.142,2.713 4.141,4.355 5.998,4.926l-0,2.357l-66.832,-0l0,-2.357c1.857,-0.571 3.856,-2.213 5.998,-4.926c2.142,-2.714 3.998,-6.712 5.569,-11.996c1.571,-5.283 2.356,-11.71 2.356,-19.278l0,-8.997c0,-8.425 -1.356,-14.78 -4.069,-19.064c-2.714,-4.284 -6.998,-7.425 -12.853,-9.425l0,-2.784c4.142,-0.714 8.497,-2.428 13.067,-5.141c4.569,-2.713 9.782,-6.212 15.637,-10.496c5.283,-3.713 9.317,-6.39 12.102,-8.033c2.785,-1.642 5.248,-2.463 7.39,-2.463Z" style="fill:#e7e3df;fill-rule:nonzero;"/><path d="M776.444,429.377c-3.57,1.143 -8.069,4.534 -13.495,10.175c-5.427,5.641 -9.996,13.53 -13.709,23.669l-23.562,64.476l-26.99,-0l-20.349,-64.047c-3.427,-10.282 -7.39,-18.279 -11.889,-23.991c-4.498,-5.712 -8.175,-9.139 -11.031,-10.282l0,-2.356l68.545,0l-0,2.356c-1.714,0.429 -3.142,1.785 -4.284,4.07c-1.142,2.285 -1.714,5.498 -1.714,9.639c0,5.712 1.286,12.638 3.856,20.778l7.925,25.062l9.425,-25.705c3.285,-9.282 4.927,-16.636 4.927,-22.062c0,-3.428 -0.535,-6.141 -1.606,-8.14c-1.071,-1.999 -2.392,-3.213 -3.963,-3.642l-0,-2.356l37.914,0l-0,2.356Z" style="fill:#e7e3df;fill-rule:nonzero;"/><path d="M821.641,470.076c-4.427,-0 -7.676,-0.428 -9.747,-1.285c-2.07,-0.857 -3.748,-2 -5.033,-3.428l-2.142,0.215c-0.714,2.856 -1.071,5.426 -1.071,7.711c-0,5.998 2.034,10.853 6.104,14.566c4.07,3.713 10.175,5.569 18.315,5.569c6.711,0 12.709,-1.499 17.993,-4.498c5.283,-2.999 9.425,-6.998 12.423,-11.996c2.999,-4.998 4.499,-10.353 4.499,-16.065c-0,-6.426 -1.857,-12.566 -5.57,-18.421c-3.712,-5.855 -9.317,-10.603 -16.814,-14.245c-7.498,-3.641 -16.601,-5.462 -27.311,-5.462c-10.139,0 -19.421,2.463 -27.847,7.39c-8.425,4.927 -15.065,11.603 -19.921,20.028c-4.855,8.425 -7.283,17.636 -7.283,27.632c0,9.996 2.428,19.171 7.283,27.525c4.856,8.354 11.496,14.995 19.921,19.921c8.426,4.927 17.708,7.39 27.847,7.39c12.995,0 23.562,-2.892 31.702,-8.675c8.139,-5.784 13.709,-12.602 16.708,-20.456l-20.564,-0c-1.571,5.997 -3.499,10.567 -5.783,13.709c-2.285,3.141 -5.998,4.712 -11.139,4.712c-4.57,0 -8.854,-1.678 -12.852,-5.034c-3.999,-3.356 -7.212,-8.354 -9.639,-14.994c-2.428,-6.64 -3.642,-14.673 -3.642,-24.098c0,-16.136 2.214,-27.739 6.641,-34.808c4.426,-7.068 10.067,-10.603 16.922,-10.603c4.141,0 7.889,0.821 11.245,2.464c3.356,1.642 5.962,3.748 7.819,6.319c1.856,2.57 2.784,5.212 2.784,7.925c0,5.998 -2.07,10.996 -6.212,14.994c-4.141,3.999 -9.353,5.998 -15.636,5.998Z" style="fill:#e7e3df;fill-rule:nonzero;"/></g></g></svg>