<?xml version="1.0" encoding="UTF-8" standalone="no"?><!DOCTYPE svg PUBLIC "-//W3C//DTD SVG 1.1//EN" "http://www.w3.org/Graphics/SVG/1.1/DTD/svg11.dtd"><svg width="100%" height="100%" viewBox="0 0 924 924" version="1.1" xmlns="http://www.w3.org/2000/svg" xmlns:xlink="http://www.w3.org/1999/xlink" xml:space="preserve" xmlns:serif="http://www.serif.com/" style="fill-rule:evenodd;clip-rule:evenodd;stroke-linejoin:round;stroke-miterlimit:2;"><rect id="Red" x="0.061" y="0.12" width="923.077" height="923.077" style="fill:none;"/><g><g><path d="M230.891,378.02c6.941,0 14.52,-1.593 22.737,-4.781c8.217,-3.187 14.592,-7.827 19.125,-13.919l6.8,0c-1.983,5.384 -6.127,10.873 -12.431,16.469c-6.304,5.596 -14.096,10.236 -23.375,13.919c-9.279,3.683 -19.231,5.525 -29.856,5.525c-16.575,-0 -31.415,-3.4 -44.519,-10.2c-13.104,-6.8 -23.375,-16.221 -30.813,-28.263c-7.437,-12.041 -11.156,-25.641 -11.156,-40.8c0,-15.583 3.683,-29.395 11.05,-41.437c7.367,-12.042 17.496,-21.463 30.388,-28.263c12.891,-6.8 27.341,-10.2 43.35,-10.2c13.6,0 25.677,1.948 36.231,5.844c10.554,3.896 18.771,9.527 24.65,16.894c5.879,7.367 8.819,15.937 8.819,25.712c-0,6.942 -1.736,13.388 -5.207,19.338c-3.47,5.95 -8.57,10.696 -15.3,14.237c-6.729,3.542 -14.698,5.313 -23.906,5.313c-8.5,-0 -15.937,-1.381 -22.312,-4.144c-6.375,-2.762 -11.263,-6.552 -14.663,-11.369c-3.4,-4.816 -5.1,-10.27 -5.1,-16.362c0,-6.517 1.877,-12.325 5.631,-17.425c3.755,-5.1 8.536,-7.65 14.344,-7.65c4.958,-0 9.138,1.629 12.538,4.887c3.4,3.259 5.1,7.367 5.1,12.325c-0,2.409 -0.425,4.392 -1.275,5.95c-0.85,1.559 -2.196,3.471 -4.038,5.738c-1.558,1.983 -2.656,3.542 -3.294,4.675c-0.637,1.133 -0.956,2.479 -0.956,4.037c0,2.692 1.133,4.994 3.4,6.907c2.267,1.912 5.454,2.868 9.563,2.868c5.1,0 9.491,-2.798 13.175,-8.393c3.683,-5.596 5.525,-12.786 5.525,-21.569c-0,-11.192 -2.975,-20.329 -8.925,-27.413c-5.95,-7.083 -14.521,-10.625 -25.713,-10.625c-10.625,0 -19.621,3.152 -26.987,9.457c-7.367,6.304 -12.927,14.981 -16.682,26.031c-3.754,11.05 -5.631,23.517 -5.631,37.4c0,12.608 2.94,23.41 8.819,32.406c5.879,8.996 13.423,15.725 22.631,20.188c9.208,4.462 18.629,6.693 28.263,6.693Z" style="fill:#9f422f;fill-rule:nonzero;"/><path d="M329.916,225.445c3.541,0 5.702,1.311 6.481,3.932c0.779,2.62 1.169,6.339 1.169,11.156l-0,110.925c-0,7.508 0.779,13.883 2.337,19.125c1.558,5.242 3.4,9.208 5.525,11.9c2.125,2.692 4.108,4.321 5.95,4.887l0,2.338l-66.512,-0l-0,-2.338c1.841,-0.566 3.825,-2.195 5.95,-4.887c2.125,-2.692 3.966,-6.658 5.525,-11.9c1.558,-5.242 2.337,-11.617 2.337,-19.125l0.213,-69.275c-0,-8.358 -1.346,-14.663 -4.038,-18.913c-2.692,-4.25 -6.942,-7.366 -12.75,-9.35l0,-2.762c4.108,-0.708 8.358,-2.338 12.75,-4.888c4.392,-2.55 9.633,-6.02 15.725,-10.412c5.242,-3.683 9.244,-6.34 12.006,-7.969c2.763,-1.629 5.207,-2.444 7.332,-2.444Z" style="fill:#9f422f;fill-rule:nonzero;"/><path d="M390.903,281.758c-5.808,-0 -10.767,-2.054 -14.875,-6.163c-4.108,-4.108 -6.162,-9.066 -6.162,-14.875c-0,-5.808 2.054,-10.731 6.162,-14.768c4.108,-4.038 9.067,-6.057 14.875,-6.057c5.808,0 10.731,2.019 14.769,6.057c4.037,4.037 6.056,8.96 6.056,14.768c0,5.95 -2.019,10.944 -6.056,14.982c-4.038,4.037 -8.961,6.056 -14.769,6.056Zm11.688,3.825c3.116,-0 5.17,1.452 6.162,4.356c0.992,2.904 1.488,6.552 1.488,10.944l-0,50.575c-0,7.508 0.779,13.883 2.337,19.125c1.558,5.242 3.4,9.208 5.525,11.9c2.125,2.692 4.108,4.321 5.95,4.887l0,2.338l-66.3,-0l0,-2.338c1.842,-0.566 3.825,-2.195 5.95,-4.887c2.125,-2.692 3.967,-6.658 5.525,-11.9c1.558,-5.242 2.338,-11.617 2.338,-19.125l-0,-8.925c-0,-8.358 -1.346,-14.663 -4.038,-18.913c-2.692,-4.25 -6.942,-7.366 -12.75,-9.35l0,-2.762c4.108,-0.708 8.429,-2.408 12.963,-5.1c4.533,-2.692 9.704,-6.163 15.512,-10.413c5.242,-3.683 9.244,-6.339 12.006,-7.968c2.763,-1.63 5.207,-2.444 7.332,-2.444Z" style="fill:#9f422f;fill-rule:nonzero;"/><path d="M497.153,223.745c9.208,0 16.433,2.125 21.675,6.375c5.242,4.25 7.863,10.13 7.863,17.638c-0,3.967 -1.346,7.296 -4.038,9.987c-2.692,2.692 -5.879,4.038 -9.562,4.038c-3.967,-0 -7.296,-1.346 -9.988,-4.038c-2.692,-2.691 -4.037,-6.02 -4.037,-9.987c-0,-1.983 0.425,-3.613 1.275,-4.888c0.85,-1.275 2.089,-2.585 3.718,-3.931c1.63,-1.346 2.444,-2.444 2.444,-3.294c0,-2.125 -1.912,-3.187 -5.737,-3.187c-7.084,-0 -12.148,3.187 -15.194,9.562c-3.046,6.375 -4.569,15.867 -4.569,28.475l0,19.338l22.525,-0c0.567,-0 0.85,1.417 0.85,4.25c0,2.833 -0.283,4.25 -0.85,4.25l-16.15,-0c-2.975,-0 -4.781,0.425 -5.419,1.275c-0.637,0.85 -0.956,2.55 -0.956,5.1l0,46.75c0,7.508 0.779,13.883 2.338,19.125c1.558,5.242 3.4,9.208 5.525,11.9c2.125,2.692 4.108,4.321 5.95,4.887l-0,2.338l-66.3,-0l-0,-2.338c1.841,-0.566 3.825,-2.195 5.95,-4.887c2.125,-2.692 3.966,-6.658 5.525,-11.9c1.558,-5.242 2.337,-11.617 2.337,-19.125l0,-46.75c0,-2.55 -0.319,-4.25 -0.956,-5.1c-0.638,-0.85 -2.444,-1.275 -5.419,-1.275l-6.8,-0c-0.142,-0 -0.319,-0.461 -0.531,-1.381c-0.213,-0.921 -0.319,-1.877 -0.319,-2.869c0,-0.992 0.106,-1.948 0.319,-2.869c0.212,-0.921 0.389,-1.381 0.531,-1.381l13.175,-0l0,-7.225c0,-10.2 2.09,-19.798 6.269,-28.794c4.179,-8.996 10.377,-16.256 18.594,-21.781c8.216,-5.525 18.204,-8.288 29.962,-8.288Z" style="fill:#9f422f;fill-rule:nonzero;"/><path d="M606.591,228.42c7.65,0 13.564,1.807 17.743,5.419c4.18,3.613 6.269,8.677 6.269,15.194c0,6.375 -1.558,11.581 -4.675,15.619c-3.117,4.037 -7.792,6.056 -14.025,6.056c-2.692,-0 -4.994,-0.283 -6.906,-0.85c-1.913,-0.567 -3.861,-1.417 -5.844,-2.55c-1.842,-0.992 -3.471,-1.7 -4.887,-2.125c-1.417,-0.425 -3.046,-0.638 -4.888,-0.638c-2.55,0 -5.064,0.744 -7.544,2.232c-2.479,1.487 -6.127,4.073 -10.943,7.756l-3.613,2.762c-3.967,3.4 -5.95,6.517 -5.95,9.35l0,76.925c0,3.825 0.461,6.8 1.381,8.925c0.921,2.125 1.984,3.861 3.188,5.207c1.204,1.345 2.019,2.302 2.444,2.868l-0,2.125c-1.559,3.4 -3.896,6.269 -7.013,8.607c-3.117,2.337 -6.8,3.506 -11.05,3.506c-8.925,-0 -15.796,-2.515 -20.612,-7.544c-4.817,-5.029 -7.225,-11.935 -7.225,-20.719l-0,-61.837c-0,-2.55 -0.319,-4.25 -0.957,-5.1c-0.637,-0.85 -2.443,-1.275 -5.418,-1.275l-7.863,-0l0,-0.213c-0.425,-0.425 -0.637,-1.77 -0.637,-4.037c-0,-2.833 0.283,-4.25 0.85,-4.25l0.425,-0c6.658,-0 12.679,-2.09 18.062,-6.269c5.383,-4.179 10.023,-9.137 13.919,-14.875c3.896,-5.737 8.464,-13.423 13.706,-23.056l2.55,-4.675l4.25,-0l0,29.537c3.258,-2.975 6.233,-6.056 8.925,-9.243c2.692,-3.188 5.808,-7.119 9.35,-11.794c5.525,-7.367 10.165,-12.715 13.919,-16.044c3.754,-3.329 8.11,-4.994 13.069,-4.994Z" style="fill:#9f422f;fill-rule:nonzero;"/><path d="M620.191,285.583c11.616,-0 21.923,2.408 30.918,7.225c8.996,4.817 15.938,11.404 20.825,19.762c4.888,8.359 7.332,17.567 7.332,27.625c-0,9.917 -2.409,19.019 -7.225,27.307c-4.817,8.287 -11.369,14.875 -19.657,19.762c-8.287,4.888 -17.46,7.331 -27.518,7.331c-10.059,0 -19.267,-2.443 -27.625,-7.331c-8.359,-4.887 -14.946,-11.475 -19.763,-19.762c-4.817,-8.288 -7.225,-17.39 -7.225,-27.307c0,-4.816 0.708,-9.845 2.125,-15.087c0.142,-0.425 0.283,-0.638 0.425,-0.638c0.142,0 0.283,0.213 0.425,0.638c1.417,7.508 5.065,13.706 10.944,18.594c5.879,4.887 12.856,7.331 20.931,7.331c1.7,-0 2.975,-0.071 3.825,-0.213c2.267,11.192 5.171,19.798 8.713,25.819c3.541,6.021 7.579,9.031 12.112,9.031c4.25,0 7.544,-2.443 9.881,-7.331c2.338,-4.887 3.507,-11.864 3.507,-20.931c-0,-6.233 -0.496,-12.75 -1.488,-19.55c-1.983,-14.025 -5.489,-24.756 -10.519,-32.194c-5.029,-7.437 -10.873,-11.156 -17.531,-11.156c-4.675,-0 -8.571,1.346 -11.687,4.037c-3.117,2.692 -4.675,5.738 -4.675,9.138c-0,0.85 0.177,1.381 0.531,1.594c0.354,0.212 0.885,0.177 1.594,-0.107c1.7,-0.566 3.612,-0.85 5.737,-0.85c5.383,0 9.988,1.877 13.813,5.632c3.825,3.754 5.737,8.252 5.737,13.493c0,5.242 -1.912,9.705 -5.737,13.388c-3.825,3.683 -8.43,5.525 -13.813,5.525c-7.933,-0 -14.521,-2.621 -19.762,-7.863c-5.242,-5.241 -7.863,-11.616 -7.863,-19.125c0,-5.666 1.877,-11.12 5.631,-16.362c3.755,-5.242 8.925,-9.456 15.513,-12.644c6.587,-3.187 13.777,-4.781 21.569,-4.781Z" style="fill:#9f422f;fill-rule:nonzero;"/><path d="M799.753,351.458c0,10.908 1.063,19.373 3.188,25.394c2.125,6.02 4.32,9.527 6.587,10.518l0,2.338l-58.012,-0l-0,-2.338c2.125,-0.991 4.25,-4.498 6.375,-10.518c2.125,-6.021 3.187,-14.486 3.187,-25.394l0,-26.35c0,-6.517 -0.992,-11.936 -2.975,-16.256c-1.983,-4.321 -4.887,-6.482 -8.712,-6.482c-8.359,0 -12.538,8.288 -12.538,24.863l0,24.225c0,10.908 1.063,19.373 3.188,25.394c2.125,6.02 4.32,9.527 6.587,10.518l0,2.338l-62.262,-0l-0,-2.338c1.841,-0.566 3.825,-2.195 5.95,-4.887c2.125,-2.692 3.966,-6.658 5.525,-11.9c1.558,-5.242 2.337,-11.617 2.337,-19.125l0,-8.925c0,-8.358 -1.346,-14.663 -4.037,-18.913c-2.692,-4.25 -6.942,-7.366 -12.75,-9.35l-0,-2.762c4.108,-0.708 8.429,-2.408 12.962,-5.1c4.533,-2.692 9.704,-6.163 15.513,-10.413c5.241,-3.683 9.243,-6.339 12.006,-7.968c2.762,-1.63 5.206,-2.444 7.331,-2.444c3.117,-0 5.171,1.452 6.163,4.356c0.991,2.904 1.487,6.552 1.487,10.944l0,0.425c8.925,-10.2 19.621,-15.3 32.088,-15.3c10.625,-0 18.416,3.612 23.375,10.837c4.958,7.225 7.437,15.867 7.437,25.925l0,28.688Z" style="fill:#9f422f;fill-rule:nonzero;"/></g><g><path d="M259.705,546.815c20.849,-0 38.164,3.248 51.944,9.746c13.78,6.497 20.671,16.672 20.671,30.524c-0,7.14 -1.928,12.673 -5.784,16.601c-3.856,3.927 -9.139,5.89 -15.851,5.89c-7.426,0 -13.173,-2.07 -17.243,-6.212c-4.07,-4.141 -6.105,-10.496 -6.105,-19.064c-0,-6.854 -4.427,-12.138 -13.281,-15.851c-8.853,-3.713 -21.491,-5.569 -37.914,-5.569c-7.425,-0 -14.637,0.357 -21.634,1.071c-6.997,0.714 -16.065,1.785 -27.204,3.213c-12.424,1.571 -22.42,2.713 -29.988,3.427c-7.569,0.714 -15.709,1.071 -24.419,1.071c-19.136,-0.857 -35.308,-6.105 -48.517,-15.744c-13.21,-9.639 -23.099,-22.598 -29.668,-38.878c-6.568,-16.279 -9.853,-34.772 -9.853,-55.478c0,-18.279 3.677,-34.13 11.032,-47.553c7.354,-13.424 17.493,-23.67 30.416,-30.738c12.924,-7.069 27.597,-10.675 44.019,-10.818c13.709,0 25.883,1.964 36.522,5.891c10.638,3.927 18.921,9.603 24.847,17.029c5.927,7.426 8.89,16.065 8.89,25.919c-0,6.997 -1.75,13.494 -5.248,19.492c-3.499,5.998 -8.64,10.782 -15.423,14.352c-6.783,3.57 -14.816,5.355 -24.098,5.355c-8.568,-0 -16.065,-1.392 -22.491,-4.177c-6.426,-2.785 -11.353,-6.605 -14.78,-11.46c-3.427,-4.855 -5.141,-10.353 -5.141,-16.494c0,-6.568 1.892,-12.423 5.676,-17.564c3.785,-5.141 8.604,-7.712 14.459,-7.712c4.998,0 9.211,1.643 12.638,4.927c3.427,3.285 5.141,7.426 5.141,12.424c0,2.428 -0.428,4.427 -1.285,5.998c-0.857,1.57 -2.214,3.498 -4.07,5.783c-1.571,1.999 -2.678,3.57 -3.32,4.713c-0.643,1.142 -0.964,2.499 -0.964,4.069c-0,2.714 1.142,5.034 3.427,6.962c2.285,1.928 5.498,2.892 9.639,2.892c5.141,-0 9.568,-2.821 13.281,-8.461c3.713,-5.641 5.569,-12.888 5.569,-21.742c0,-11.281 -2.999,-20.492 -8.996,-27.632c-5.998,-7.14 -14.638,-10.71 -25.919,-10.71c-16.137,-0 -28.453,7.283 -36.95,21.848c-8.497,14.566 -12.745,34.63 -12.745,60.191c-0,30.275 6.283,53.801 18.85,70.58c12.566,16.78 30.702,25.169 54.407,25.169c5.141,0 11.068,-0.5 17.779,-1.499c6.712,-1 15.423,-2.571 26.133,-4.713c12.567,-2.284 22.884,-4.034 30.952,-5.248c8.069,-1.213 15.601,-1.82 22.599,-1.82Z" style="fill:#9f422f;fill-rule:nonzero;"/><path d="M283.053,417.008c6.997,-0 12.995,2.499 17.993,7.497c4.998,4.998 7.497,10.995 7.497,17.993c0,6.997 -2.499,12.995 -7.497,17.993c-4.998,4.998 -10.996,7.497 -17.993,7.497c-6.141,-0 -11.21,-2.285 -15.209,-6.855c-3.998,-4.569 -5.997,-9.853 -5.997,-15.851c-0,-2.427 0.428,-4.926 1.285,-7.497c0.428,-1.57 0.643,-2.642 0.643,-3.213c-0,-0.571 -0.215,-0.857 -0.643,-0.857c-0.428,0 -1.357,0.5 -2.785,1.5c-2.998,2.428 -5.462,5.712 -7.39,9.853c-1.927,4.141 -2.891,8.925 -2.891,14.352l-0,29.56c-0,7.568 0.785,13.994 2.356,19.278c1.571,5.284 3.427,9.282 5.569,11.995c2.142,2.714 4.141,4.356 5.998,4.927l-0,2.356l-66.832,0l0,-2.356c1.857,-0.571 3.856,-2.213 5.998,-4.927c2.142,-2.713 3.999,-6.711 5.569,-11.995c1.571,-5.284 2.357,-11.71 2.357,-19.278l-0,-8.997c-0,-8.425 -1.357,-14.78 -4.07,-19.064c-2.713,-4.284 -6.997,-7.425 -12.852,-9.425l-0,-2.784c4.141,-0.714 8.496,-2.428 13.066,-5.141c4.57,-2.713 9.782,-6.212 15.637,-10.496c5.284,-3.713 9.318,-6.391 12.102,-8.033c2.785,-1.642 5.248,-2.463 7.39,-2.463c5.141,-0 7.712,4.855 7.712,14.566c3.855,-6.141 8.246,-11.032 13.173,-14.673c4.927,-3.642 11.531,-5.462 19.814,-5.462Z" style="fill:#9f422f;fill-rule:nonzero;"/><path d="M368.091,469.916c-4.426,-0 -7.675,-0.429 -9.746,-1.285c-2.07,-0.857 -3.748,-2 -5.034,-3.428l-2.142,0.215c-0.714,2.856 -1.071,5.426 -1.071,7.711c0,5.998 2.035,10.853 6.105,14.566c4.07,3.712 10.175,5.569 18.315,5.569c6.711,-0 12.709,-1.5 17.993,-4.498c5.283,-2.999 9.425,-6.998 12.423,-11.996c2.999,-4.998 4.499,-10.353 4.499,-16.065c-0,-6.426 -1.857,-12.567 -5.57,-18.421c-3.712,-5.855 -9.317,-10.603 -16.815,-14.245c-7.497,-3.641 -16.6,-5.462 -27.31,-5.462c-10.139,-0 -19.422,2.463 -27.847,7.39c-8.425,4.927 -15.065,11.603 -19.921,20.028c-4.855,8.425 -7.283,17.636 -7.283,27.632c0,9.996 2.428,19.171 7.283,27.525c4.856,8.354 11.496,14.994 19.921,19.921c8.425,4.927 17.708,7.39 27.847,7.39c12.995,0 23.562,-2.892 31.702,-8.675c8.139,-5.784 13.709,-12.602 16.707,-20.457l-20.563,0c-1.571,5.998 -3.499,10.568 -5.784,13.709c-2.284,3.142 -5.997,4.713 -11.138,4.713c-4.57,-0 -8.854,-1.678 -12.852,-5.034c-3.999,-3.356 -7.212,-8.354 -9.639,-14.994c-2.428,-6.64 -3.642,-14.673 -3.642,-24.098c0,-16.137 2.214,-27.739 6.64,-34.808c4.427,-7.069 10.068,-10.603 16.922,-10.603c4.142,0 7.89,0.821 11.246,2.463c3.356,1.643 5.962,3.749 7.819,6.319c1.856,2.571 2.784,5.213 2.784,7.926c0,5.998 -2.07,10.996 -6.212,14.994c-4.141,3.999 -9.353,5.998 -15.637,5.998Z" style="fill:#9f422f;fill-rule:nonzero;"/><path d="M524.888,501.189c0,3.856 0.5,6.855 1.499,8.997c1,2.142 2.071,3.891 3.214,5.248c1.142,1.357 1.927,2.32 2.356,2.892l-0,2.142c-1.571,3.427 -3.927,6.319 -7.069,8.675c-3.142,2.356 -6.854,3.534 -11.138,3.534c-5.141,0 -9.711,-0.999 -13.709,-2.999c-3.999,-1.999 -7.283,-4.569 -9.854,-7.711c-1.571,-1.571 -2.927,-2.356 -4.07,-2.356c-0.856,-0 -2.07,0.5 -3.641,1.499c-8.711,7.712 -17.351,11.567 -25.919,11.567c-7.283,0 -13.923,-1.713 -19.921,-5.141c-5.997,-3.427 -10.71,-8.068 -14.137,-13.923c-3.427,-5.855 -5.141,-12.281 -5.141,-19.278c0,-7.569 2.071,-14.494 6.212,-20.778c4.141,-6.283 9.711,-11.245 16.708,-14.887c6.997,-3.641 14.637,-5.462 22.92,-5.462c9.139,-0 16.565,1.714 22.277,5.141c-0.714,-8.997 -2.535,-15.78 -5.462,-20.349c-2.928,-4.57 -7.533,-6.855 -13.817,-6.855c-5.997,0 -10.924,1.964 -14.78,5.891c-3.855,3.927 -5.783,8.318 -5.783,13.173l-4.927,1.928c-2.57,-1 -4.462,-2.285 -5.676,-3.856c-1.214,-1.571 -1.821,-3.713 -1.821,-6.426c0,-5.569 3.463,-10.174 10.389,-13.816c6.926,-3.641 15.101,-5.462 24.526,-5.462c18.707,-0 32.845,4.534 42.412,13.602c9.568,9.068 14.352,21.17 14.352,36.307l0,28.703Zm-68.331,-9.853c0,8.425 1.071,15.351 3.213,20.778c2.142,5.426 4.856,8.139 8.14,8.139c2.428,0 5.355,-1.57 8.782,-4.712c3.856,-3.998 6.319,-8.425 7.39,-13.281c1.071,-4.855 1.607,-11.638 1.607,-20.349l-0,-13.28c-3.856,-2.856 -7.926,-4.285 -12.21,-4.285c-5.569,0 -9.782,2.143 -12.638,6.427c-2.856,4.284 -4.284,11.138 -4.284,20.563Z" style="fill:#9f422f;fill-rule:nonzero;"/><path d="M612.711,541.245c5.141,0 9.532,2 13.174,5.998c3.641,3.999 5.462,8.64 5.462,13.923c-0,9.425 -3.856,16.28 -11.567,20.564c-7.711,4.284 -16.636,6.426 -26.775,6.426c-17.279,-0 -29.882,-5.855 -37.807,-17.565c-7.926,-11.71 -11.888,-27.703 -11.888,-47.981l-0,-80.755c-0,-2.57 -0.322,-4.284 -0.964,-5.141c-0.643,-0.857 -2.464,-1.285 -5.463,-1.285l-7.711,0c-0.571,0 -0.857,-1.428 -0.857,-4.284c0,-2.856 0.286,-4.284 0.857,-4.284l0.214,-0c6.712,-0 12.817,-2.071 18.315,-6.212c5.498,-4.141 10.246,-9.175 14.244,-15.101c3.999,-5.927 8.568,-13.674 13.709,-23.241l2.571,-4.713l4.284,0l-0,49.267l21.634,-0c0.571,-0 0.857,1.428 0.857,4.284c-0,2.856 -0.286,4.284 -0.857,4.284l-15.422,0c-3.713,0 -5.784,1 -6.212,2.999l-0,112.242c-0,7.426 1.142,14.102 3.427,20.028c2.285,5.927 5.498,8.89 9.639,8.89c3.713,-0 5.569,-0.714 5.569,-2.142c0,-0.714 -0.25,-1.393 -0.749,-2.035c-0.5,-0.643 -1.036,-1.321 -1.607,-2.035c-1.714,-1.714 -3.106,-3.57 -4.177,-5.569c-1.071,-2 -1.606,-4.642 -1.606,-7.926c-0,-5.284 1.963,-9.71 5.89,-13.281c3.927,-3.57 8.533,-5.355 13.816,-5.355Z" style="fill:#9f422f;fill-rule:nonzero;"/><path d="M645.913,422.577c3.141,-0 5.212,1.464 6.212,4.391c0.999,2.928 1.499,6.605 1.499,11.032l0,50.98c0,7.568 0.785,13.994 2.356,19.278c1.571,5.284 3.428,9.282 5.57,11.995c2.142,2.714 4.141,4.356 5.997,4.927l0,2.356l-66.831,0l-0,-2.356c1.856,-0.571 3.856,-2.213 5.998,-4.927c2.142,-2.713 3.998,-6.711 5.569,-11.995c1.571,-5.284 2.356,-11.71 2.356,-19.278l0,-8.997c0,-8.425 -1.356,-14.78 -4.07,-19.064c-2.713,-4.284 -6.997,-7.425 -12.852,-9.425l0,-2.784c4.141,-0.714 8.497,-2.428 13.066,-5.141c4.57,-2.713 9.782,-6.212 15.637,-10.496c5.284,-3.713 9.318,-6.391 12.103,-8.033c2.784,-1.642 5.248,-2.463 7.39,-2.463Z" style="fill:#9f422f;fill-rule:nonzero;"/><path d="M776.362,429.217c-3.57,1.143 -8.068,4.534 -13.494,10.175c-5.427,5.641 -9.997,13.53 -13.709,23.669l-23.563,64.475l-26.989,0l-20.35,-64.046c-3.427,-10.282 -7.39,-18.279 -11.888,-23.991c-4.498,-5.712 -8.175,-9.139 -11.031,-10.282l-0,-2.356l68.545,-0l-0,2.356c-1.714,0.429 -3.142,1.785 -4.284,4.07c-1.143,2.285 -1.714,5.498 -1.714,9.639c-0,5.712 1.285,12.638 3.856,20.778l7.925,25.062l9.425,-25.705c3.285,-9.282 4.927,-16.636 4.927,-22.063c-0,-3.427 -0.536,-6.14 -1.607,-8.139c-1.071,-2 -2.392,-3.213 -3.963,-3.642l0,-2.356l37.914,-0l0,2.356Z" style="fill:#9f422f;fill-rule:nonzero;"/><path d="M821.559,469.916c-4.427,-0 -7.675,-0.429 -9.746,-1.285c-2.071,-0.857 -3.749,-2 -5.034,-3.428l-2.142,0.215c-0.714,2.856 -1.071,5.426 -1.071,7.711c0,5.998 2.035,10.853 6.105,14.566c4.07,3.712 10.175,5.569 18.314,5.569c6.712,-0 12.71,-1.5 17.993,-4.498c5.284,-2.999 9.425,-6.998 12.424,-11.996c2.999,-4.998 4.498,-10.353 4.498,-16.065c0,-6.426 -1.856,-12.567 -5.569,-18.421c-3.713,-5.855 -9.318,-10.603 -16.815,-14.245c-7.497,-3.641 -16.601,-5.462 -27.311,-5.462c-10.139,-0 -19.421,2.463 -27.846,7.39c-8.425,4.927 -15.066,11.603 -19.921,20.028c-4.855,8.425 -7.283,17.636 -7.283,27.632c0,9.996 2.428,19.171 7.283,27.525c4.855,8.354 11.496,14.994 19.921,19.921c8.425,4.927 17.707,7.39 27.846,7.39c12.995,0 23.563,-2.892 31.702,-8.675c8.14,-5.784 13.709,-12.602 16.708,-20.457l-20.563,0c-1.571,5.998 -3.499,10.568 -5.784,13.709c-2.285,3.142 -5.997,4.713 -11.138,4.713c-4.57,-0 -8.854,-1.678 -12.853,-5.034c-3.998,-3.356 -7.211,-8.354 -9.639,-14.994c-2.427,-6.64 -3.641,-14.673 -3.641,-24.098c-0,-16.137 2.213,-27.739 6.64,-34.808c4.427,-7.069 10.068,-10.603 16.922,-10.603c4.141,0 7.89,0.821 11.246,2.463c3.356,1.643 5.962,3.749 7.818,6.319c1.857,2.571 2.785,5.213 2.785,7.926c-0,5.998 -2.071,10.996 -6.212,14.994c-4.141,3.999 -9.353,5.998 -15.637,5.998Z" style="fill:#9f422f;fill-rule:nonzero;"/></g></g></svg>