<svg viewBox="0 0 924 924" xmlns="http://www.w3.org/2000/svg" xml:space="preserve" style="fill-rule:evenodd;clip-rule:evenodd;stroke-linejoin:round;stroke-miterlimit:2"><path style="fill:none" d="M.313.502H923.39v923.077H.313z"/><path d="M204.916 407.651c0 9.687 1.005 17.912 3.015 24.674 2.011 6.763 4.387 11.88 7.128 15.353 2.742 3.472 5.3 5.574 7.676 6.305v3.016h-89.373v-3.016c2.376-.731 4.935-2.833 7.676-6.305 2.742-3.473 5.118-8.59 7.128-15.353 2.011-6.762 3.016-14.987 3.016-24.674v-55.104c6.397-5.666 11.331-12.474 14.804-20.424 3.473-7.951 5.209-16.678 5.209-26.182 0-7.859-1.782-15.124-5.346-21.795-3.564-6.671-8.453-12.291-14.667-16.86v-35.64c-2.193-.183-5.575-.274-10.144-.274-12.063 0-23.211 2.833-33.446 8.498-10.235 5.666-18.369 13.525-24.4 23.577-6.031 10.053-9.047 21.202-9.047 33.447 0 14.804 3.381 27.05 10.144 36.736 6.762 9.687 16.266 14.53 28.511 14.53 8.591 0 15.764-1.964 21.521-5.894 5.758-3.929 10.007-8.773 12.748-14.53 2.742-5.757 4.113-11.286 4.113-16.586 0-5.3-1.462-10.052-4.387-14.256-2.924-4.204-6.853-6.854-11.788-7.95h-.823c-1.279 0-1.645.913-1.096 2.741.731 2.193 1.096 4.661 1.096 7.402 0 6.945-2.421 12.885-7.265 17.82-4.843 4.935-10.646 7.402-17.408 7.402-6.763 0-12.52-2.467-17.272-7.402-4.752-4.935-7.128-10.875-7.128-17.82 0-10.235 3.381-18.733 10.144-25.496 6.762-6.762 14.987-10.144 24.673-10.144 8.225 0 15.81 1.874 22.755 5.621 6.945 3.746 12.428 8.864 16.449 15.352 4.021 6.488 6.032 13.662 6.032 21.521 0 12.063-2.879 22.481-8.636 31.253-5.757 8.773-13.616 15.399-23.577 19.876-9.961 4.478-21.156 6.717-33.584 6.717-14.621 0-27.826-2.924-39.615-8.773-11.789-5.848-21.064-14.301-27.826-25.359-6.763-11.057-10.144-24.171-10.144-39.341 0-15.535 5.3-28.74 15.901-39.615 10.6-10.874 24.856-19.053 42.768-24.536 17.911-5.483 37.833-8.225 59.765-8.225 11.331 0 23.394.686 36.188 2.056 12.794 1.371 28.877 3.427 48.251 6.169 17.911 2.559 33.126 4.523 45.646 5.894 12.519 1.371 24.08 2.056 34.68 2.056 15.901 0 31.391-2.65 46.469-7.95 15.078-5.3 28.055-12.657 38.929-22.069 10.875-9.413 18.232-20.059 22.07-31.939l5.483-1.919c6.579 8.407 9.869 19.19 9.869 32.35 0 10.418-3.153 21.658-9.458 33.72-6.306 12.063-16.266 22.435-29.883 31.117-13.616 8.681-30.659 13.022-51.129 13.022-19.556 0-37.102-2.193-52.637-6.58-15.535-4.386-33.629-10.874-54.282-19.465-11.332-4.752-19.831-8.133-25.496-10.143v163.394Zm191.632 20.288c0 6.031.64 11.651 1.919 16.86s3.473 8.362 6.58 9.458v2.742c-2.376 2.01-5.986 3.61-10.829 4.798-4.844 1.188-9.55 1.782-14.119 1.782-12.794 0-21.613-3.427-26.456-10.281-4.843-6.854-7.265-17.226-7.265-31.116l.274-48.525c0-8.408-1.279-15.399-3.838-20.973s-6.305-8.362-11.24-8.362c-3.656 0-7.219 2.148-10.692 6.443s-6.306 10.052-8.499 17.272c-2.193 7.219-3.29 14.941-3.29 23.165v16.449c0 9.687 1.006 17.912 3.016 24.674 2.01 6.763 4.386 11.88 7.128 15.353 2.742 3.472 5.3 5.574 7.676 6.305v3.016h-85.809v-3.016c2.376-.731 4.934-2.833 7.676-6.305 2.741-3.473 5.117-8.59 7.128-15.353 2.01-6.762 3.016-14.987 3.016-24.674l.274-135.431c16.449 6.032 33.081 10.144 49.895 12.337v66.893c12.611-18.825 28.512-28.237 47.703-28.237 13.707 0 23.76 4.66 30.157 13.981 6.396 9.322 9.595 20.47 9.595 33.447v57.298ZM583.245 474.545c6.58 0 12.2 2.558 16.861 7.676 4.66 5.117 6.991 11.057 6.991 17.82 0 12.062-4.935 20.835-14.805 26.318-9.869 5.483-21.292 8.225-34.269 8.225-22.114 0-38.244-7.494-48.387-22.481-10.144-14.987-15.216-35.457-15.216-61.41v-3.838c-1.096.183-2.467.823-4.112 1.919-11.149 9.87-22.206 14.805-33.172 14.805-9.322 0-17.82-2.194-25.497-6.58-7.676-4.387-13.707-10.327-18.094-17.82-4.386-7.494-6.579-15.718-6.579-24.674 0-9.686 2.65-18.551 7.95-26.592 5.3-8.042 12.428-14.393 21.384-19.054 8.956-4.661 18.734-6.991 29.334-6.991 11.697 0 21.201 2.193 28.512 6.58-.914-11.515-3.244-20.196-6.991-26.045-3.747-5.848-9.641-8.773-17.683-8.773-7.676 0-13.981 2.513-18.916 7.54-4.935 5.026-7.402 10.646-7.402 16.86l-6.306 2.467c-3.29-1.279-5.711-2.924-7.265-4.934-1.553-2.011-2.33-4.752-2.33-8.225 0-7.128 4.432-13.022 13.296-17.683 8.865-4.66 19.328-6.991 31.391-6.991 23.942 0 42.036 5.803 54.282 17.409 12.245 11.606 18.368 27.095 18.368 46.469v100.065c0 9.504 1.462 18.049 4.386 25.634 2.925 7.584 7.037 11.377 12.337 11.377 4.752 0 7.128-.914 7.128-2.742 0-.914-.32-1.782-.959-2.604-.64-.823-1.325-1.691-2.056-2.605-2.194-2.193-3.976-4.569-5.346-7.128-1.371-2.558-2.057-5.939-2.057-10.143 0-6.763 2.514-12.428 7.54-16.998 5.026-4.569 10.92-6.853 17.682-6.853Zm-126.109-63.878c0 10.783 1.37 19.648 4.112 26.593 2.741 6.945 6.214 10.418 10.418 10.418 3.107 0 6.853-2.011 11.24-6.032 4.935-5.117 8.087-10.783 9.458-16.997 1.371-6.214 2.056-14.896 2.056-26.045v-16.997c-4.935-3.655-10.143-5.483-15.626-5.483-7.128 0-12.52 2.742-16.175 8.225-3.656 5.483-5.483 14.255-5.483 26.318Z" style="fill:#e7e3df;fill-rule:nonzero"/><path d="M707.436 407.651c0 14.074 1.371 24.994 4.113 32.762 2.741 7.767 5.574 12.291 8.498 13.57v3.016h-74.843v-3.016c2.741-1.279 5.483-5.803 8.224-13.57 2.742-7.768 4.113-18.688 4.113-32.762v-33.994c0-8.408-1.28-15.399-3.838-20.973-2.559-5.574-6.306-8.362-11.241-8.362-10.783 0-16.175 10.692-16.175 32.076v31.253c0 14.074 1.371 24.994 4.113 32.762 2.741 7.767 5.574 12.291 8.498 13.57v3.016h-80.326v-3.016c2.376-.731 4.935-2.833 7.676-6.305 2.742-3.473 5.118-8.59 7.128-15.353 2.01-6.762 3.016-14.987 3.016-24.674v-11.514c0-10.783-1.737-18.916-5.209-24.399-3.473-5.483-8.956-9.504-16.449-12.063v-3.564c5.3-.914 10.874-3.107 16.723-6.58 5.849-3.472 12.52-7.95 20.013-13.433 6.762-4.752 11.926-8.179 15.49-10.281 3.564-2.102 6.716-3.153 9.458-3.153 4.021 0 6.671 1.874 7.95 5.62 1.28 3.747 1.919 8.453 1.919 14.119v.549c11.515-13.16 25.314-19.739 41.397-19.739 13.708 0 23.76 4.66 30.157 13.981 6.397 9.322 9.595 20.47 9.595 33.447v37.01ZM874.395 427.939c0 6.397.64 12.108 1.919 17.134s3.564 8.088 6.854 9.184v2.742c-2.376 2.01-5.986 3.61-10.829 4.798-4.843 1.188-9.55 1.782-14.119 1.782-12.794 0-21.612-3.427-26.456-10.281-4.843-6.854-7.265-17.226-7.265-31.116 0-13.525-1.279-24.354-3.838-32.487-2.559-8.134-6.488-12.2-11.788-12.2-4.387 0-7.859 1.965-10.418 5.894-2.559 3.93-4.204 10.738-4.935 20.424v3.838c0 9.687 1.005 17.912 3.016 24.674 2.01 6.763 4.386 11.88 7.128 15.353 2.741 3.472 5.3 5.574 7.676 6.305v3.016h-85.81v-3.016c2.376-.731 4.935-2.833 7.677-6.305 2.741-3.473 5.117-8.59 7.128-15.353 2.01-6.762 3.015-14.987 3.015-24.674l.274-89.373c0-10.783-1.736-18.917-5.208-24.4-3.473-5.483-8.956-9.504-16.45-12.062v-3.564c5.301-.914 10.784-3.016 16.45-6.306 5.665-3.29 12.428-7.767 20.287-13.433 6.762-4.752 11.925-8.179 15.489-10.281 3.564-2.102 6.717-3.153 9.459-3.153 4.569 0 7.356 1.691 8.361 5.072 1.006 3.381 1.508 8.179 1.508 14.393v107.194l1.371-1.097 20.561-14.256c13.525-9.321 20.288-16.084 20.288-20.287 0-2.376-2.285-4.021-6.854-4.935v-3.016h51.54v3.016c-.365.366-2.193 1.279-5.483 2.742-14.438 6.396-27.872 13.89-40.3 22.48l-7.95 5.483c1.827-.183 4.569-.274 8.224-.274 7.494 0 14.256 2.376 20.287 7.128 6.032 4.752 10.738 10.875 14.119 18.368 3.381 7.494 5.072 15.261 5.072 23.303v17.546ZM435.752 470.025c9.869 0 17.5 2.33 22.891 6.991 5.392 4.66 8.088 11.194 8.088 19.602 0 8.224-2.011 14.941-6.032 20.15-4.02 5.209-10.052 7.813-18.094 7.813-3.107 0-5.711-.32-7.813-.959-2.102-.64-4.523-1.6-7.265-2.879-2.924-1.279-5.529-2.285-7.813-3.016-2.285-.731-5.255-1.096-8.91-1.096-5.483 0-10.555 2.056-15.216 6.168-4.66 4.112-9.367 9.915-14.118 17.409l-10.418 18.368-2.742 4.661-5.757 10.143c-4.752 9.504-7.128 19.282-7.128 29.335v110.209c0 9.504 1.462 18.048 4.387 25.633 2.924 7.585 7.036 11.377 12.336 11.377 4.752 0 7.128-.914 7.128-2.741 0-.914-.32-1.782-.959-2.605-.64-.822-1.325-1.69-2.056-2.604-2.194-2.193-3.976-4.569-5.346-7.128-1.371-2.559-2.056-5.94-2.056-10.144 0-6.762 2.513-12.428 7.539-16.997 5.026-4.569 10.92-6.854 17.683-6.854 6.579 0 12.199 2.559 16.86 7.676 4.66 5.118 6.991 11.058 6.991 17.82 0 12.063-4.935 20.836-14.804 26.319-9.87 5.483-21.293 8.224-34.269 8.224-22.298 0-39.021-7.539-50.17-22.617-11.149-15.079-16.815-35.229-16.998-60.451v-61.41c0-9.504-2.284-19.191-6.854-29.06l-32.624-58.394c-6.579-11.88-12.885-20.973-18.916-27.279-6.031-6.305-10.692-10.554-13.982-12.748v-3.015h88.551v3.015c-3.29.914-4.934 3.747-4.934 8.499 0 6.763 4.02 17.089 12.062 30.979l25.222 43.316 20.287-36.188c8.408-14.804 15.399-26.364 20.973-34.68 5.575-8.316 12.108-15.535 19.602-21.658 7.493-6.123 15.718-9.184 24.674-9.184Z" style="fill:#e7e3df;fill-rule:nonzero"/><path d="M458.232 684.138c-12.976 0-24.856-3.153-35.64-9.459-10.783-6.305-19.282-14.804-25.496-25.496-6.214-10.692-9.321-22.434-9.321-35.228s3.107-24.583 9.321-35.366c6.214-10.783 14.713-19.328 25.496-25.633 10.784-6.306 22.664-9.458 35.64-9.458 12.977 0 24.811 3.152 35.503 9.458 10.692 6.305 19.145 14.85 25.359 25.633 6.214 10.783 9.321 22.572 9.321 35.366s-3.107 24.536-9.321 35.228c-6.214 10.692-14.667 19.191-25.359 25.496-10.692 6.306-22.526 9.459-35.503 9.459Zm6.306-11.515c5.483 0 9.732-3.152 12.748-9.458 3.015-6.305 4.523-15.307 4.523-27.004 0-8.042-.639-16.449-1.919-25.222-2.376-17.911-6.077-31.71-11.103-41.397-5.026-9.687-10.738-14.53-17.135-14.53-5.665 0-10.006 3.199-13.022 9.595-3.015 6.397-4.523 15.536-4.523 27.416 0 7.859.639 16.175 1.919 24.947 2.559 17.729 6.351 31.437 11.377 41.123 5.026 9.687 10.738 14.53 17.135 14.53ZM681.118 551.996c-2.376 1.28-4.752 5.803-7.128 13.571-2.376 7.768-3.564 18.688-3.564 32.761v45.783c0 4.935.594 8.773 1.782 11.515 1.188 2.741 2.559 4.98 4.112 6.717 1.554 1.736 2.605 2.97 3.153 3.701v2.741c-2.011 4.387-5.026 8.088-9.047 11.103-4.021 3.016-8.773 4.524-14.256 4.524-9.321 0-16.906-2.102-22.755-6.306-5.848-4.203-9.778-10.143-11.788-17.82-10.601 14.987-24.126 22.481-40.575 22.481-13.707 0-23.76-4.661-30.156-13.982-6.397-9.321-9.596-20.47-9.596-33.446v-37.011c0-14.073-1.371-24.993-4.112-32.761-2.742-7.768-5.575-12.291-8.499-13.571v-3.015h62.507v87.18c0 16.449 5.026 24.674 15.078 24.674 5.118 0 8.727-2.833 10.829-8.499 2.102-5.666 3.153-14.164 3.153-25.496v-28.512c0-14.073-1.371-24.993-4.112-32.761-2.742-7.768-5.483-12.291-8.225-13.571v-3.015h73.199v3.015Z" style="fill:#e7e3df;fill-rule:nonzero"/></svg>