<?xml version="1.0" encoding="UTF-8" standalone="no"?><!DOCTYPE svg PUBLIC "-//W3C//DTD SVG 1.1//EN" "http://www.w3.org/Graphics/SVG/1.1/DTD/svg11.dtd"><svg width="100%" height="100%" viewBox="0 0 924 924" version="1.1" xmlns="http://www.w3.org/2000/svg" xmlns:xlink="http://www.w3.org/1999/xlink" xml:space="preserve" xmlns:serif="http://www.serif.com/" style="fill-rule:evenodd;clip-rule:evenodd;stroke-linejoin:round;stroke-miterlimit:2;"><rect id="Yellow" x="0" y="0.215" width="923.077" height="923.077" style="fill:none;"/><g><g><path d="M230.83,378.115c6.941,-0 14.52,-1.594 22.737,-4.781c8.217,-3.188 14.592,-7.827 19.125,-13.919l6.8,-0c-1.983,5.383 -6.127,10.873 -12.431,16.469c-6.304,5.595 -14.096,10.235 -23.375,13.918c-9.279,3.684 -19.231,5.525 -29.856,5.525c-16.575,0 -31.415,-3.4 -44.519,-10.2c-13.104,-6.8 -23.375,-16.22 -30.813,-28.262c-7.437,-12.042 -11.156,-25.642 -11.156,-40.8c0,-15.583 3.683,-29.396 11.05,-41.438c7.367,-12.041 17.496,-21.462 30.388,-28.262c12.891,-6.8 27.341,-10.2 43.35,-10.2c13.6,-0 25.677,1.948 36.231,5.844c10.554,3.895 18.771,9.527 24.65,16.893c5.879,7.367 8.819,15.938 8.819,25.713c-0,6.942 -1.736,13.387 -5.207,19.337c-3.471,5.95 -8.571,10.696 -15.3,14.238c-6.729,3.542 -14.698,5.312 -23.906,5.312c-8.5,0 -15.937,-1.381 -22.312,-4.143c-6.375,-2.763 -11.263,-6.552 -14.663,-11.369c-3.4,-4.817 -5.1,-10.271 -5.1,-16.363c0,-6.516 1.877,-12.325 5.631,-17.425c3.754,-5.1 8.536,-7.65 14.344,-7.65c4.958,0 9.138,1.63 12.538,4.888c3.4,3.258 5.1,7.367 5.1,12.325c-0,2.408 -0.425,4.392 -1.275,5.95c-0.85,1.558 -2.196,3.471 -4.038,5.737c-1.558,1.984 -2.656,3.542 -3.294,4.675c-0.637,1.134 -0.956,2.48 -0.956,4.038c0,2.692 1.133,4.994 3.4,6.906c2.267,1.913 5.454,2.869 9.563,2.869c5.1,-0 9.491,-2.798 13.175,-8.394c3.683,-5.596 5.525,-12.785 5.525,-21.569c-0,-11.191 -2.975,-20.329 -8.925,-27.412c-5.95,-7.083 -14.521,-10.625 -25.713,-10.625c-10.625,-0 -19.621,3.152 -26.987,9.456c-7.367,6.304 -12.928,14.981 -16.682,26.031c-3.754,11.05 -5.631,23.517 -5.631,37.4c0,12.609 2.94,23.411 8.819,32.407c5.879,8.995 13.423,15.725 22.631,20.187c9.208,4.463 18.629,6.694 28.263,6.694Z" style="fill:#dca464;fill-rule:nonzero;"/><path d="M329.855,225.54c3.541,-0 5.702,1.31 6.481,3.931c0.779,2.621 1.169,6.34 1.169,11.156l-0,110.925c-0,7.509 0.779,13.884 2.337,19.125c1.558,5.242 3.4,9.209 5.525,11.9c2.125,2.692 4.108,4.321 5.95,4.888l0,2.337l-66.512,0l-0,-2.337c1.841,-0.567 3.825,-2.196 5.95,-4.888c2.125,-2.691 3.966,-6.658 5.525,-11.9c1.558,-5.241 2.337,-11.616 2.337,-19.125l0.213,-69.275c-0,-8.358 -1.346,-14.662 -4.038,-18.912c-2.692,-4.25 -6.942,-7.367 -12.75,-9.35l0,-2.763c4.108,-0.708 8.358,-2.337 12.75,-4.887c4.392,-2.55 9.633,-6.021 15.725,-10.413c5.242,-3.683 9.244,-6.339 12.006,-7.968c2.763,-1.63 5.207,-2.444 7.332,-2.444Z" style="fill:#dca464;fill-rule:nonzero;"/><path d="M390.842,281.852c-5.808,0 -10.767,-2.054 -14.875,-6.162c-4.108,-4.108 -6.162,-9.067 -6.162,-14.875c-0,-5.808 2.054,-10.731 6.162,-14.769c4.108,-4.037 9.067,-6.056 14.875,-6.056c5.808,-0 10.731,2.019 14.769,6.056c4.037,4.038 6.056,8.961 6.056,14.769c0,5.95 -2.019,10.944 -6.056,14.981c-4.038,4.038 -8.961,6.056 -14.769,6.056Zm11.688,3.825c3.116,0 5.17,1.452 6.162,4.357c0.992,2.904 1.488,6.552 1.488,10.943l-0,50.575c-0,7.509 0.779,13.884 2.337,19.125c1.558,5.242 3.4,9.209 5.525,11.9c2.125,2.692 4.108,4.321 5.95,4.888l0,2.337l-66.3,0l0,-2.337c1.842,-0.567 3.825,-2.196 5.95,-4.888c2.125,-2.691 3.967,-6.658 5.525,-11.9c1.558,-5.241 2.338,-11.616 2.338,-19.125l-0,-8.925c-0,-8.358 -1.346,-14.662 -4.038,-18.912c-2.692,-4.25 -6.942,-7.367 -12.75,-9.35l0,-2.763c4.108,-0.708 8.429,-2.408 12.963,-5.1c4.533,-2.691 9.704,-6.162 15.512,-10.412c5.242,-3.683 9.244,-6.34 12.006,-7.969c2.763,-1.629 5.207,-2.444 7.332,-2.444Z" style="fill:#dca464;fill-rule:nonzero;"/><path d="M497.092,223.84c9.208,-0 16.433,2.125 21.675,6.375c5.242,4.25 7.863,10.129 7.863,17.637c-0,3.967 -1.346,7.296 -4.038,9.988c-2.692,2.692 -5.879,4.037 -9.562,4.037c-3.967,0 -7.296,-1.345 -9.988,-4.037c-2.692,-2.692 -4.037,-6.021 -4.037,-9.988c-0,-1.983 0.425,-3.612 1.275,-4.887c0.85,-1.275 2.089,-2.586 3.718,-3.931c1.629,-1.346 2.444,-2.444 2.444,-3.294c0,-2.125 -1.912,-3.188 -5.737,-3.188c-7.084,0 -12.148,3.188 -15.194,9.563c-3.046,6.375 -4.569,15.867 -4.569,28.475l0,19.337l22.525,0c0.567,0 0.85,1.417 0.85,4.25c0,2.834 -0.283,4.25 -0.85,4.25l-16.15,0c-2.975,0 -4.781,0.425 -5.419,1.275c-0.637,0.85 -0.956,2.55 -0.956,5.1l0,46.75c0,7.509 0.779,13.884 2.338,19.125c1.558,5.242 3.4,9.209 5.525,11.9c2.125,2.692 4.108,4.321 5.95,4.888l-0,2.337l-66.3,0l-0,-2.337c1.841,-0.567 3.825,-2.196 5.95,-4.888c2.125,-2.691 3.966,-6.658 5.525,-11.9c1.558,-5.241 2.337,-11.616 2.337,-19.125l0,-46.75c0,-2.55 -0.319,-4.25 -0.956,-5.1c-0.638,-0.85 -2.444,-1.275 -5.419,-1.275l-6.8,0c-0.142,0 -0.319,-0.46 -0.531,-1.381c-0.213,-0.921 -0.319,-1.877 -0.319,-2.869c0,-0.991 0.106,-1.948 0.319,-2.868c0.212,-0.921 0.389,-1.382 0.531,-1.382l13.175,0l0,-7.225c0,-10.2 2.09,-19.798 6.269,-28.793c4.179,-8.996 10.377,-16.257 18.594,-21.782c8.216,-5.525 18.204,-8.287 29.962,-8.287Z" style="fill:#dca464;fill-rule:nonzero;"/><path d="M606.53,228.515c7.65,-0 13.564,1.806 17.743,5.419c4.179,3.612 6.269,8.677 6.269,15.193c0,6.375 -1.558,11.582 -4.675,15.619c-3.117,4.038 -7.792,6.056 -14.025,6.056c-2.692,0 -4.994,-0.283 -6.906,-0.85c-1.913,-0.566 -3.861,-1.416 -5.844,-2.55c-1.842,-0.991 -3.471,-1.7 -4.887,-2.125c-1.417,-0.425 -3.046,-0.637 -4.888,-0.637c-2.55,-0 -5.065,0.744 -7.544,2.231c-2.479,1.488 -6.127,4.073 -10.943,7.756l-3.613,2.763c-3.967,3.4 -5.95,6.517 -5.95,9.35l0,76.925c0,3.825 0.46,6.8 1.381,8.925c0.921,2.125 1.984,3.86 3.188,5.206c1.204,1.346 2.019,2.302 2.444,2.869l-0,2.125c-1.559,3.4 -3.896,6.269 -7.013,8.606c-3.117,2.338 -6.8,3.506 -11.05,3.506c-8.925,0 -15.796,-2.514 -20.612,-7.543c-4.817,-5.03 -7.225,-11.936 -7.225,-20.719l-0,-61.838c-0,-2.55 -0.319,-4.25 -0.957,-5.1c-0.637,-0.85 -2.443,-1.275 -5.418,-1.275l-7.863,0l0,-0.212c-0.425,-0.425 -0.637,-1.771 -0.637,-4.038c-0,-2.833 0.283,-4.25 0.85,-4.25l0.425,0c6.658,0 12.679,-2.089 18.062,-6.268c5.383,-4.18 10.023,-9.138 13.919,-14.875c3.896,-5.738 8.464,-13.423 13.706,-23.057l2.55,-4.675l4.25,0l0,29.538c3.258,-2.975 6.233,-6.056 8.925,-9.244c2.692,-3.187 5.808,-7.119 9.35,-11.794c5.525,-7.366 10.165,-12.714 13.919,-16.043c3.754,-3.33 8.11,-4.994 13.069,-4.994Z" style="fill:#dca464;fill-rule:nonzero;"/><path d="M620.13,285.677c11.616,0 21.922,2.409 30.918,7.225c8.996,4.817 15.938,11.405 20.825,19.763c4.888,8.358 7.332,17.567 7.332,27.625c-0,9.917 -2.409,19.019 -7.225,27.306c-4.817,8.288 -11.369,14.875 -19.657,19.763c-8.287,4.887 -17.46,7.331 -27.518,7.331c-10.059,-0 -19.267,-2.444 -27.625,-7.331c-8.359,-4.888 -14.946,-11.475 -19.763,-19.763c-4.817,-8.287 -7.225,-17.389 -7.225,-27.306c0,-4.817 0.708,-9.846 2.125,-15.088c0.142,-0.425 0.283,-0.637 0.425,-0.637c0.142,-0 0.283,0.212 0.425,0.637c1.417,7.509 5.065,13.707 10.944,18.594c5.879,4.888 12.856,7.331 20.931,7.331c1.7,0 2.975,-0.07 3.825,-0.212c2.267,11.192 5.171,19.798 8.713,25.819c3.541,6.02 7.579,9.031 12.112,9.031c4.25,-0 7.544,-2.444 9.881,-7.331c2.338,-4.888 3.507,-11.865 3.507,-20.932c-0,-6.233 -0.496,-12.75 -1.488,-19.55c-1.983,-14.025 -5.49,-24.756 -10.519,-32.193c-5.029,-7.438 -10.873,-11.157 -17.531,-11.157c-4.675,0 -8.571,1.346 -11.687,4.038c-3.117,2.692 -4.675,5.737 -4.675,9.137c-0,0.85 0.177,1.382 0.531,1.594c0.354,0.213 0.885,0.177 1.594,-0.106c1.7,-0.567 3.612,-0.85 5.737,-0.85c5.383,-0 9.988,1.877 13.813,5.631c3.825,3.754 5.737,8.252 5.737,13.494c0,5.242 -1.912,9.704 -5.737,13.387c-3.825,3.684 -8.43,5.525 -13.813,5.525c-7.933,0 -14.521,-2.62 -19.762,-7.862c-5.242,-5.242 -7.863,-11.617 -7.863,-19.125c0,-5.667 1.877,-11.121 5.631,-16.363c3.754,-5.241 8.925,-9.456 15.513,-12.643c6.587,-3.188 13.777,-4.782 21.569,-4.782Z" style="fill:#dca464;fill-rule:nonzero;"/><path d="M799.692,351.552c0,10.909 1.063,19.373 3.188,25.394c2.125,6.021 4.32,9.527 6.587,10.519l0,2.337l-58.012,0l-0,-2.337c2.125,-0.992 4.25,-4.498 6.375,-10.519c2.125,-6.021 3.187,-14.485 3.187,-25.394l0,-26.35c0,-6.516 -0.992,-11.935 -2.975,-16.256c-1.983,-4.321 -4.887,-6.481 -8.712,-6.481c-8.359,-0 -12.538,8.287 -12.538,24.862l0,24.225c0,10.909 1.063,19.373 3.188,25.394c2.125,6.021 4.32,9.527 6.587,10.519l0,2.337l-62.262,0l-0,-2.337c1.841,-0.567 3.825,-2.196 5.95,-4.888c2.125,-2.691 3.966,-6.658 5.525,-11.9c1.558,-5.241 2.337,-11.616 2.337,-19.125l0,-8.925c0,-8.358 -1.346,-14.662 -4.037,-18.912c-2.692,-4.25 -6.942,-7.367 -12.75,-9.35l-0,-2.763c4.108,-0.708 8.429,-2.408 12.962,-5.1c4.533,-2.691 9.704,-6.162 15.513,-10.412c5.241,-3.683 9.243,-6.34 12.006,-7.969c2.762,-1.629 5.206,-2.444 7.331,-2.444c3.117,0 5.171,1.452 6.163,4.357c0.991,2.904 1.487,6.552 1.487,10.943l0,0.425c8.925,-10.2 19.621,-15.3 32.088,-15.3c10.625,0 18.416,3.613 23.375,10.838c4.958,7.225 7.437,15.867 7.437,25.925l0,28.687Z" style="fill:#dca464;fill-rule:nonzero;"/></g><g><path d="M259.644,546.909c20.849,0 38.164,3.249 51.944,9.746c13.78,6.498 20.671,16.673 20.671,30.524c-0,7.14 -1.928,12.674 -5.784,16.601c-3.856,3.927 -9.139,5.891 -15.851,5.891c-7.426,-0 -13.173,-2.071 -17.243,-6.212c-4.07,-4.142 -6.105,-10.496 -6.105,-19.064c-0,-6.855 -4.427,-12.138 -13.281,-15.851c-8.853,-3.713 -21.491,-5.57 -37.914,-5.57c-7.425,0 -14.637,0.357 -21.634,1.071c-6.997,0.714 -16.065,1.785 -27.204,3.213c-12.424,1.571 -22.42,2.714 -29.988,3.428c-7.569,0.714 -15.709,1.071 -24.419,1.071c-19.136,-0.857 -35.308,-6.105 -48.517,-15.744c-13.21,-9.639 -23.099,-22.599 -29.668,-38.878c-6.568,-16.279 -9.853,-34.772 -9.853,-55.479c0,-18.278 3.677,-34.129 11.032,-47.553c7.354,-13.423 17.493,-23.669 30.416,-30.738c12.924,-7.069 27.597,-10.674 44.019,-10.817c13.709,-0 25.883,1.963 36.522,5.89c10.638,3.928 18.921,9.604 24.847,17.03c5.927,7.425 8.89,16.065 8.89,25.918c-0,6.997 -1.75,13.495 -5.248,19.493c-3.499,5.997 -8.64,10.781 -15.423,14.351c-6.783,3.57 -14.816,5.355 -24.098,5.355c-8.568,0 -16.065,-1.392 -22.491,-4.177c-6.426,-2.784 -11.353,-6.604 -14.78,-11.459c-3.427,-4.856 -5.141,-10.354 -5.141,-16.494c0,-6.569 1.892,-12.424 5.676,-17.565c3.785,-5.141 8.604,-7.711 14.459,-7.711c4.998,-0 9.211,1.642 12.638,4.927c3.427,3.284 5.141,7.425 5.141,12.423c0,2.428 -0.428,4.427 -1.285,5.998c-0.857,1.571 -2.214,3.499 -4.07,5.784c-1.571,1.999 -2.678,3.57 -3.32,4.712c-0.643,1.142 -0.964,2.499 -0.964,4.07c-0,2.713 1.142,5.034 3.427,6.961c2.285,1.928 5.498,2.892 9.639,2.892c5.141,0 9.568,-2.82 13.281,-8.461c3.713,-5.64 5.569,-12.888 5.569,-21.741c0,-11.282 -2.999,-20.492 -8.996,-27.633c-5.998,-7.14 -14.638,-10.71 -25.919,-10.71c-16.137,0 -28.453,7.283 -36.95,21.849c-8.497,14.566 -12.745,34.629 -12.745,60.191c-0,30.274 6.283,53.801 18.85,70.58c12.566,16.779 30.702,25.169 54.407,25.169c5.141,-0 11.068,-0.5 17.779,-1.5c6.712,-0.999 15.423,-2.57 26.133,-4.712c12.567,-2.285 22.884,-4.034 30.952,-5.248c8.069,-1.214 15.601,-1.821 22.599,-1.821Z" style="fill:#dca464;fill-rule:nonzero;"/><path d="M282.992,417.102c6.997,0 12.995,2.499 17.993,7.497c4.998,4.998 7.497,10.996 7.497,17.993c0,6.998 -2.499,12.995 -7.497,17.993c-4.998,4.998 -10.996,7.497 -17.993,7.497c-6.141,0 -11.21,-2.284 -15.209,-6.854c-3.998,-4.57 -5.997,-9.853 -5.997,-15.851c-0,-2.428 0.428,-4.927 1.285,-7.497c0.428,-1.571 0.643,-2.642 0.643,-3.213c-0,-0.571 -0.215,-0.857 -0.643,-0.857c-0.428,-0 -1.357,0.5 -2.785,1.499c-2.998,2.428 -5.462,5.712 -7.39,9.854c-1.927,4.141 -2.891,8.925 -2.891,14.351l-0,29.56c-0,7.569 0.785,13.995 2.356,19.279c1.571,5.283 3.427,9.282 5.569,11.995c2.142,2.713 4.141,4.355 5.998,4.927l-0,2.356l-66.832,-0l0,-2.356c1.857,-0.572 3.856,-2.214 5.998,-4.927c2.142,-2.713 3.999,-6.712 5.569,-11.995c1.571,-5.284 2.357,-11.71 2.357,-19.279l-0,-8.996c-0,-8.425 -1.357,-14.78 -4.07,-19.064c-2.713,-4.284 -6.998,-7.426 -12.852,-9.425l-0,-2.785c4.141,-0.714 8.496,-2.427 13.066,-5.141c4.57,-2.713 9.782,-6.212 15.637,-10.496c5.283,-3.712 9.318,-6.39 12.102,-8.032c2.785,-1.642 5.248,-2.464 7.39,-2.464c5.141,0 7.712,4.856 7.712,14.566c3.855,-6.14 8.246,-11.031 13.173,-14.673c4.927,-3.641 11.531,-5.462 19.814,-5.462Z" style="fill:#dca464;fill-rule:nonzero;"/><path d="M368.03,470.01c-4.426,0 -7.675,-0.428 -9.746,-1.285c-2.07,-0.857 -3.748,-1.999 -5.034,-3.427l-2.142,0.214c-0.714,2.856 -1.071,5.426 -1.071,7.711c0,5.998 2.035,10.853 6.105,14.566c4.07,3.713 10.175,5.569 18.315,5.569c6.711,0 12.709,-1.499 17.993,-4.498c5.283,-2.999 9.425,-6.997 12.423,-11.995c2.999,-4.998 4.499,-10.353 4.499,-16.065c-0,-6.427 -1.857,-12.567 -5.57,-18.422c-3.712,-5.855 -9.317,-10.603 -16.815,-14.244c-7.497,-3.642 -16.6,-5.463 -27.31,-5.463c-10.139,0 -19.422,2.464 -27.847,7.39c-8.425,4.927 -15.065,11.603 -19.921,20.028c-4.855,8.426 -7.283,17.636 -7.283,27.633c0,9.996 2.428,19.171 7.283,27.525c4.856,8.354 11.496,14.994 19.921,19.921c8.425,4.926 17.708,7.39 27.847,7.39c12.995,-0 23.562,-2.892 31.702,-8.676c8.139,-5.783 13.709,-12.602 16.707,-20.456l-20.563,-0c-1.571,5.998 -3.499,10.567 -5.784,13.709c-2.284,3.142 -5.997,4.712 -11.138,4.712c-4.57,0 -8.854,-1.678 -12.852,-5.033c-3.999,-3.356 -7.212,-8.354 -9.639,-14.995c-2.428,-6.64 -3.642,-14.672 -3.642,-24.097c0,-16.137 2.214,-27.74 6.64,-34.808c4.427,-7.069 10.068,-10.603 16.922,-10.603c4.142,-0 7.89,0.821 11.246,2.463c3.356,1.642 5.962,3.748 7.819,6.319c1.856,2.57 2.784,5.212 2.784,7.925c0,5.998 -2.07,10.996 -6.212,14.995c-4.141,3.998 -9.353,5.997 -15.637,5.997Z" style="fill:#dca464;fill-rule:nonzero;"/><path d="M524.827,501.284c0,3.856 0.5,6.854 1.499,8.996c1,2.142 2.071,3.892 3.214,5.248c1.142,1.357 1.927,2.321 2.356,2.892l-0,2.142c-1.571,3.427 -3.927,6.319 -7.069,8.675c-3.142,2.357 -6.854,3.535 -11.139,3.535c-5.14,-0 -9.71,-1 -13.708,-2.999c-3.999,-1.999 -7.283,-4.57 -9.854,-7.711c-1.571,-1.571 -2.927,-2.357 -4.07,-2.357c-0.857,0 -2.07,0.5 -3.641,1.5c-8.711,7.711 -17.351,11.567 -25.919,11.567c-7.283,-0 -13.923,-1.714 -19.921,-5.141c-5.997,-3.427 -10.71,-8.068 -14.137,-13.923c-3.427,-5.855 -5.141,-12.281 -5.141,-19.279c0,-7.568 2.071,-14.494 6.212,-20.777c4.141,-6.284 9.711,-11.246 16.708,-14.887c6.997,-3.642 14.637,-5.463 22.92,-5.463c9.139,0 16.565,1.714 22.277,5.141c-0.714,-8.996 -2.535,-15.779 -5.462,-20.349c-2.928,-4.57 -7.533,-6.854 -13.817,-6.854c-5.997,-0 -10.924,1.963 -14.78,5.89c-3.855,3.927 -5.783,8.318 -5.783,13.174l-4.927,1.927c-2.57,-0.999 -4.462,-2.284 -5.676,-3.855c-1.214,-1.571 -1.821,-3.713 -1.821,-6.426c0,-5.57 3.463,-10.175 10.389,-13.816c6.926,-3.642 15.101,-5.463 24.526,-5.463c18.707,0 32.845,4.534 42.412,13.602c9.568,9.068 14.352,21.171 14.352,36.308l0,28.703Zm-68.331,-9.853c0,8.425 1.071,15.351 3.213,20.777c2.142,5.427 4.856,8.14 8.14,8.14c2.428,-0 5.355,-1.571 8.782,-4.712c3.856,-3.999 6.319,-8.426 7.39,-13.281c1.071,-4.855 1.607,-11.638 1.607,-20.349l-0,-13.281c-3.856,-2.856 -7.926,-4.284 -12.21,-4.284c-5.569,0 -9.782,2.142 -12.638,6.426c-2.856,4.284 -4.284,11.139 -4.284,20.564Z" style="fill:#dca464;fill-rule:nonzero;"/><path d="M612.65,541.34c5.141,-0 9.532,1.999 13.174,5.998c3.641,3.998 5.462,8.639 5.462,13.923c-0,9.425 -3.856,16.279 -11.567,20.563c-7.711,4.284 -16.636,6.426 -26.775,6.426c-17.279,0 -29.882,-5.855 -37.807,-17.564c-7.926,-11.71 -11.888,-27.704 -11.888,-47.982l-0,-80.754c-0,-2.571 -0.322,-4.284 -0.964,-5.141c-0.643,-0.857 -2.464,-1.285 -5.463,-1.285l-7.711,-0c-0.571,-0 -0.857,-1.428 -0.857,-4.284c0,-2.857 0.286,-4.285 0.857,-4.285l0.214,0c6.712,0 12.817,-2.07 18.315,-6.211c5.498,-4.142 10.246,-9.175 14.244,-15.102c3.999,-5.926 8.568,-13.673 13.709,-23.241l2.571,-4.712l4.284,-0l-0,49.266l21.634,0c0.571,0 0.857,1.428 0.857,4.285c-0,2.856 -0.286,4.284 -0.857,4.284l-15.422,-0c-3.713,-0 -5.784,0.999 -6.212,2.998l-0,112.243c-0,7.426 1.142,14.102 3.427,20.028c2.285,5.926 5.498,8.889 9.639,8.889c3.713,0 5.569,-0.714 5.569,-2.142c0,-0.714 -0.25,-1.392 -0.749,-2.035c-0.5,-0.642 -1.036,-1.321 -1.607,-2.035c-1.714,-1.713 -3.106,-3.57 -4.177,-5.569c-1.071,-1.999 -1.606,-4.641 -1.606,-7.925c-0,-5.284 1.963,-9.711 5.89,-13.281c3.927,-3.57 8.533,-5.355 13.816,-5.355Z" style="fill:#dca464;fill-rule:nonzero;"/><path d="M645.852,422.671c3.141,0 5.212,1.464 6.212,4.392c0.999,2.927 1.499,6.604 1.499,11.031l0,50.98c0,7.569 0.785,13.995 2.356,19.279c1.571,5.283 3.428,9.282 5.57,11.995c2.142,2.713 4.141,4.355 5.997,4.927l0,2.356l-66.831,-0l-0,-2.356c1.856,-0.572 3.856,-2.214 5.998,-4.927c2.142,-2.713 3.998,-6.712 5.569,-11.995c1.571,-5.284 2.356,-11.71 2.356,-19.279l0,-8.996c0,-8.425 -1.357,-14.78 -4.07,-19.064c-2.713,-4.284 -6.997,-7.426 -12.852,-9.425l0,-2.785c4.141,-0.714 8.497,-2.427 13.066,-5.141c4.57,-2.713 9.782,-6.212 15.637,-10.496c5.284,-3.712 9.318,-6.39 12.103,-8.032c2.784,-1.642 5.248,-2.464 7.39,-2.464Z" style="fill:#dca464;fill-rule:nonzero;"/><path d="M776.301,429.312c-3.57,1.142 -8.068,4.534 -13.494,10.174c-5.427,5.641 -9.997,13.531 -13.709,23.67l-23.563,64.475l-26.989,-0l-20.35,-64.047c-3.427,-10.282 -7.39,-18.278 -11.888,-23.991c-4.498,-5.712 -8.175,-9.139 -11.031,-10.281l-0,-2.357l68.545,0l-0,2.357c-1.714,0.428 -3.142,1.785 -4.284,4.07c-1.143,2.284 -1.714,5.497 -1.714,9.639c-0,5.712 1.285,12.638 3.856,20.777l7.925,25.062l9.425,-25.704c3.285,-9.282 4.927,-16.637 4.927,-22.063c-0,-3.427 -0.536,-6.141 -1.607,-8.14c-1.071,-1.999 -2.392,-3.213 -3.963,-3.641l0,-2.357l37.914,0l0,2.357Z" style="fill:#dca464;fill-rule:nonzero;"/><path d="M821.498,470.01c-4.427,0 -7.675,-0.428 -9.746,-1.285c-2.071,-0.857 -3.749,-1.999 -5.034,-3.427l-2.142,0.214c-0.714,2.856 -1.071,5.426 -1.071,7.711c0,5.998 2.035,10.853 6.105,14.566c4.07,3.713 10.175,5.569 18.314,5.569c6.712,0 12.71,-1.499 17.993,-4.498c5.284,-2.999 9.425,-6.997 12.424,-11.995c2.999,-4.998 4.498,-10.353 4.498,-16.065c0,-6.427 -1.856,-12.567 -5.569,-18.422c-3.713,-5.855 -9.318,-10.603 -16.815,-14.244c-7.497,-3.642 -16.601,-5.463 -27.311,-5.463c-10.139,0 -19.421,2.464 -27.846,7.39c-8.425,4.927 -15.066,11.603 -19.921,20.028c-4.855,8.426 -7.283,17.636 -7.283,27.633c0,9.996 2.428,19.171 7.283,27.525c4.855,8.354 11.496,14.994 19.921,19.921c8.425,4.926 17.707,7.39 27.846,7.39c12.995,-0 23.563,-2.892 31.702,-8.676c8.14,-5.783 13.709,-12.602 16.708,-20.456l-20.563,-0c-1.571,5.998 -3.499,10.567 -5.784,13.709c-2.285,3.142 -5.997,4.712 -11.138,4.712c-4.57,0 -8.854,-1.678 -12.853,-5.033c-3.998,-3.356 -7.211,-8.354 -9.639,-14.995c-2.427,-6.64 -3.641,-14.672 -3.641,-24.097c-0,-16.137 2.213,-27.74 6.64,-34.808c4.427,-7.069 10.068,-10.603 16.922,-10.603c4.141,-0 7.89,0.821 11.246,2.463c3.356,1.642 5.962,3.748 7.818,6.319c1.857,2.57 2.785,5.212 2.785,7.925c-0,5.998 -2.071,10.996 -6.212,14.995c-4.141,3.998 -9.353,5.997 -15.637,5.997Z" style="fill:#dca464;fill-rule:nonzero;"/></g></g></svg>