<svg width="20" height="22" viewBox="0 0 20 22" fill="none" xmlns="http://www.w3.org/2000/svg">
<path d="M16.5149 15.5997H19.7764V15.767C19.7764 16.6273 19.4453 17.4835 18.7832 18.3357C18.1211 19.188 17.2628 19.8451 16.2084 20.307C15.154 20.769 13.8747 21 12.3706 21C9.50968 21 7.30265 20.1159 5.74961 18.3477C4.19649 16.5795 3.41992 14.1262 3.41992 10.9881C3.41992 7.86581 4.19649 5.42054 5.74961 3.65232C7.30265 1.88412 9.50968 1 12.3706 1C13.8747 1 15.154 1.22696 16.2084 1.68098C17.2628 2.13497 18.1211 2.76424 18.7832 3.5687C19.4453 4.37311 19.7764 5.26127 19.7764 6.23299V6.40021H16.5149V6.23299C16.5476 5.53203 16.237 4.92274 15.5831 4.40504C14.9291 3.88726 13.9155 3.62845 12.5423 3.62845C10.9238 3.62845 9.56281 4.20985 8.45933 5.37276C7.35579 6.5356 6.80406 8.40741 6.80406 10.9881C6.80406 13.5846 7.35579 15.4643 8.45933 16.6273C9.56281 17.7901 10.9238 18.3716 12.5423 18.3716C13.9155 18.3716 14.921 18.1127 15.5586 17.595C16.1961 17.0773 16.5149 16.4679 16.5149 15.767V15.5997Z" stroke="white" stroke-width="0.3" stroke-miterlimit="1.41421" stroke-linejoin="round"/>
<path d="M13.3274 15.5997H16.5889V15.767C16.5889 16.6273 16.2578 17.4835 15.5957 18.3357C14.9336 19.188 14.0753 19.8451 13.0209 20.307C11.9664 20.769 10.6872 21 9.18309 21C6.32216 21 4.11515 20.1159 2.56209 18.3477C1.00897 16.5795 0.232422 14.1262 0.232422 10.9881C0.232422 7.86581 1.00897 5.42054 2.56211 3.65232C4.11515 1.88412 6.32218 1 9.18309 1C10.6872 1 11.9664 1.22696 13.0209 1.68098C14.0753 2.13497 14.9336 2.76424 15.5957 3.5687C16.2578 4.37311 16.5889 5.26127 16.5889 6.23299V6.40021H13.3274V6.23299C13.3601 5.53203 13.0495 4.92274 12.3956 4.40504C11.7416 3.88726 10.728 3.62845 9.35479 3.62845C7.73627 3.62845 6.37529 4.20985 5.27183 5.37276C4.16827 6.5356 3.61654 8.40741 3.61654 10.9881C3.61654 13.5846 4.16827 15.4643 5.27183 16.6273C6.37529 17.7901 7.73627 18.3716 9.35479 18.3716C10.728 18.3716 11.7334 18.1127 12.3711 17.595C13.0086 17.0773 13.3274 16.4679 13.3274 15.767V15.5997Z" stroke="white" stroke-width="0.3" stroke-miterlimit="1.41421" stroke-linejoin="round"/>
</svg>
