<svg width="40" height="40" viewBox="0 0 40 40" fill="none"
    xmlns="http://www.w3.org/2000/svg">
    <path d="M942.953 864.075H1129.18V873.879C1129.18 924.288 1110.28 974.462 1072.47 1024.4C1034.67 1074.35 985.658 1112.85 925.45 1139.92C865.242 1166.99 792.196 1180.53 706.312 1180.53C542.954 1180.53 416.933 1128.72 328.254 1025.1C239.571 921.487 195.229 777.729 195.229 593.833C195.229 410.871 239.571 267.579 328.254 163.962C416.933 60.3461 542.954 8.53711 706.312 8.53711C792.196 8.53711 865.242 21.8371 925.45 48.4421C985.658 75.0461 1034.67 111.921 1072.47 159.062C1110.28 206.2 1129.18 258.246 1129.18 315.188V324.987H942.953V315.188C944.82 274.112 927.082 238.408 889.745 208.071C852.403 177.729 794.529 162.563 716.117 162.563C623.7 162.563 545.988 196.633 482.979 264.779C419.967 332.921 388.463 442.608 388.463 593.833C388.463 745.992 419.967 856.142 482.979 924.288C545.988 992.429 623.7 1026.5 716.117 1026.5C794.529 1026.5 851.938 1011.33 888.346 980.996C924.75 950.658 942.953 914.95 942.953 873.879V864.075Z" stroke="white" stroke-width="16.5" stroke-miterlimit="1.41421" stroke-linejoin="round"/>
    <path d="M761.038 864.075H947.267V873.879C947.267 924.288 928.362 974.462 890.557 1024.4C852.749 1074.35 803.742 1112.85 743.533 1139.92C683.325 1166.99 610.279 1180.53 524.396 1180.53C361.037 1180.53 235.017 1128.72 146.337 1025.1C57.6535 921.487 13.3125 777.729 13.3125 593.833C13.3125 410.871 57.6535 267.579 146.337 163.962C235.016 60.3461 361.038 8.53711 524.396 8.53711C610.279 8.53711 683.325 21.8371 743.533 48.4421C803.742 75.0461 852.749 111.921 890.557 159.062C928.361 206.2 947.267 258.246 947.267 315.188V324.987H761.038V315.188C762.904 274.112 745.166 238.408 707.828 208.071C670.487 177.729 612.613 162.563 534.2 162.563C441.783 162.563 364.07 196.633 301.062 264.779C238.049 332.921 206.546 442.608 206.546 593.833C206.546 745.992 238.049 856.142 301.062 924.288C364.07 992.429 441.783 1026.5 534.2 1026.5C612.613 1026.5 670.021 1011.33 706.429 980.996C742.833 950.658 761.038 914.95 761.038 873.879V864.075Z" stroke="white" stroke-width="16.5" stroke-miterlimit="1.41421" stroke-linejoin="round"/>
</svg>
