<svg width="48" height="50" viewBox="0 0 48 50" fill="none" xmlns="http://www.w3.org/2000/svg">
<path d="M39.6351 36.0393H47.4625V36.4409C47.4625 38.5054 46.668 40.5603 45.079 42.6058C43.4899 44.6512 41.43 46.2281 38.8993 47.3369C36.3687 48.4456 33.2985 49 29.6887 49C22.8224 49 17.5256 46.8782 13.7983 42.6344C10.0708 38.3907 8.20703 32.503 8.20703 24.9713C8.20703 17.478 10.0708 11.6093 13.7983 7.36557C17.5256 3.12188 22.8224 1 29.6887 1C33.2985 1 36.3687 1.54471 38.8993 2.63435C41.43 3.72394 43.4899 5.23419 45.079 7.16489C46.668 9.09547 47.4625 11.2271 47.4625 13.5592V13.9605H39.6351V13.5592C39.7135 11.8769 38.968 10.4146 37.3986 9.1721C35.8291 7.92941 33.3965 7.30827 30.1007 7.30827C26.2163 7.30827 22.95 8.70364 20.3016 11.4946C17.6531 14.2854 16.329 18.7778 16.329 24.9713C16.329 31.2031 17.6531 35.7144 20.3016 38.5054C22.95 41.2962 26.2163 42.6918 30.1007 42.6918C33.3965 42.6918 35.8095 42.0704 37.3398 40.8279C38.8699 39.5854 39.6351 38.123 39.6351 36.4409V36.0393Z" stroke="white" stroke-width="0.3" stroke-miterlimit="1.41421" stroke-linejoin="round"/>
<path d="M31.9866 36.0393H39.8141V36.4409C39.8141 38.5054 39.0195 40.5603 37.4305 42.6058C35.8414 44.6512 33.7815 46.2281 31.2509 47.3369C28.7202 48.4456 25.65 49 22.0402 49C15.174 49 9.87715 46.8782 6.14979 42.6344C2.42231 38.3907 0.558594 32.503 0.558594 24.9713C0.558594 17.478 2.42231 11.6093 6.14984 7.36557C9.87715 3.12188 15.174 1 22.0402 1C25.65 1 28.7202 1.54471 31.2509 2.63435C33.7815 3.72394 35.8414 5.23419 37.4305 7.16489C39.0195 9.09547 39.8141 11.2271 39.8141 13.5592V13.9605H31.9866V13.5592C32.065 11.8769 31.3195 10.4146 29.7502 9.1721C28.1807 7.92941 25.7481 7.30827 22.4523 7.30827C18.5678 7.30827 15.3015 8.70364 12.6532 11.4946C10.0046 14.2854 8.68047 18.7778 8.68047 24.9713C8.68047 31.2031 10.0046 35.7144 12.6532 38.5054C15.3015 41.2962 18.5678 42.6918 22.4523 42.6918C25.7481 42.6918 28.161 42.0704 29.6913 40.8279C31.2214 39.5854 31.9866 38.123 31.9866 36.4409V36.0393Z" stroke="white" stroke-width="0.3" stroke-miterlimit="1.41421" stroke-linejoin="round"/>
</svg>
