<svg xmlns="http://www.w3.org/2000/svg" width="24" height="24" viewBox="0 0 24 24">
  <style>
    path { fill: #141618; }
    @media (prefers-color-scheme: dark) {
      path { fill: white; opacity: 0.5; }
    }
  </style>
  <path d="M12,0A12,12,0,1,0,24,12,12,12,0,0,0,12,0Zm6.928,13.255a.187.187,0,0,1-.084.139,4.847,4.847,0,0,1-.513.176,2.348,2.348,0,0,0-.486.194,1.028,1.028,0,0,0-.365.328.986.986,0,0,0-.144.57v2.7a.145.145,0,0,1-.06.12.87.87,0,0,1-.19.1,10.124,10.124,0,0,1-1.176.472q-.657.224-1.35.391t-1.379.273a8.731,8.731,0,0,1-1.25.1,7.478,7.478,0,0,1-2.684-.477,6.453,6.453,0,0,1-2.184-1.37,6.362,6.362,0,0,1-1.472-2.17,7.364,7.364,0,0,1-.537-2.866,6.41,6.41,0,0,1,.251-1.795A6.754,6.754,0,0,1,7.1,7.161,7.285,7.285,0,0,1,8.488,6.1a6.811,6.811,0,0,1,1.625-.685A6.638,6.638,0,0,1,11.9,5.176a8.574,8.574,0,0,1,1,.06q.508.062.995.153t.921.2q.435.112.763.205c.22.061.4.111.537.152a1.6,1.6,0,0,0,.236.06h.112A.413.413,0,0,0,16.577,6a.54.54,0,0,0,.074-.033.547.547,0,0,1,.069-.033.38.38,0,0,1,.111-.014h.37a.257.257,0,0,1,.061.014c.027.01.041.039.041.088V9.1a.137.137,0,0,1-.088.139.4.4,0,0,1-.152.037.223.223,0,0,1-.149-.093A1.325,1.325,0,0,1,16.8,9a1.5,1.5,0,0,1-.093-.194.755.755,0,0,1-.046-.139,3.4,3.4,0,0,0-1.645-2.03,4.381,4.381,0,0,0-1.249-.453,7.157,7.157,0,0,0-1.431-.139,4.424,4.424,0,0,0-2.146.472A3.821,3.821,0,0,0,8.8,7.786a5.265,5.265,0,0,0-.74,1.84,10.659,10.659,0,0,0-.218,2.189A7.649,7.649,0,0,0,8.449,14.8a6.308,6.308,0,0,0,.708,1.249,5.088,5.088,0,0,0,.93.981,4.171,4.171,0,0,0,1.111.644,3.472,3.472,0,0,0,1.263.231,4.812,4.812,0,0,0,1.319-.162,1.7,1.7,0,0,0,.921-.634V15.06a2.36,2.36,0,0,0-.1-.708,1.078,1.078,0,0,0-.357-.523,1.757,1.757,0,0,0-.7-.323,4.789,4.789,0,0,0-1.138-.112c-.037,0-.063-.036-.08-.107a.9.9,0,0,1-.022-.18.913.913,0,0,1,.022-.157c.017-.074.043-.112.08-.112h6.438c.05,0,.079.036.088.107a1.25,1.25,0,0,1,.014.162A.921.921,0,0,1,18.928,13.255Z"/>
</svg>