<?xml version="1.0" standalone="no"?>
<!DOCTYPE svg PUBLIC "-//W3C//DTD SVG 20010904//EN"
 "http://www.w3.org/TR/2001/REC-SVG-20010904/DTD/svg10.dtd">
<svg version="1.0" xmlns="http://www.w3.org/2000/svg"
 width="700.000000pt" height="700.000000pt" viewBox="0 0 700.000000 700.000000"
 preserveAspectRatio="xMidYMid meet">
<metadata>
Created by potrace 1.14, written by Peter Selinger 2001-2017
</metadata>
<g transform="translate(0.000000,700.000000) scale(0.100000,-0.100000)"
fill="#000000" stroke="none">
<path d="M3538 5355 c-2 -1 -68 -5 -148 -9 -80 -3 -156 -8 -170 -10 -14 -3
-51 -7 -83 -10 -110 -10 -353 -72 -472 -119 -69 -28 -248 -119 -312 -158 -399
-249 -680 -647 -773 -1096 -30 -141 -35 -203 -35 -398 0 -249 14 -351 76 -555
99 -323 331 -645 618 -853 349 -254 762 -379 1251 -378 421 0 685 60 1001 224
154 79 264 161 389 286 103 104 169 195 200 276 l10 26 -138 -4 -138 -4 -79
-80 c-121 -122 -247 -196 -445 -262 -240 -80 -398 -86 -636 -26 -174 44 -356
128 -494 228 -139 101 -318 322 -388 477 -54 122 -92 261 -109 397 -13 112 -6
448 12 554 2 13 6 42 10 64 45 310 142 582 277 777 48 69 155 188 205 228 141
112 330 188 483 193 158 6 342 -50 455 -137 198 -153 302 -396 303 -711 1
-291 -88 -511 -254 -626 -58 -40 -110 -47 -170 -24 -116 44 -178 156 -144 261
7 19 46 81 87 137 91 121 112 166 116 244 9 161 -90 314 -243 375 -103 41
-362 28 -462 -23 -108 -55 -221 -222 -253 -374 -67 -320 81 -602 395 -753 168
-80 332 -110 577 -106 301 5 437 30 605 114 107 53 162 93 245 177 152 154
235 361 234 587 -1 267 -90 479 -280 666 -220 217 -513 342 -946 404 -22 3
-107 8 -190 11 -82 4 -158 8 -167 9 -9 2 -18 3 -20 1z"/>
</g>
</svg>
